<?xml version="1.0" standalone="no"?>
<!DOCTYPE svg PUBLIC "-//W3C//DTD SVG 20010904//EN"
 "http://www.w3.org/TR/2001/REC-SVG-20010904/DTD/svg10.dtd">
<svg version="1.0" xmlns="http://www.w3.org/2000/svg"
 width="901.000000pt" height="901.000000pt" viewBox="0 0 901.000000 901.000000"
 preserveAspectRatio="xMidYMid meet">
<metadata>
Created by potrace 1.16, written by Peter Selinger 2001-2019
</metadata>
<g transform="translate(0.000000,901.000000) scale(0.100000,-0.100000)"
fill="#000000" stroke="none">
<path d="M3898 8453 c-2 -30 -4 -37 -17 -75 -7 -21 -17 -38 -22 -38 -5 0 -14
-10 -19 -22 -6 -17 -9 -18 -9 -6 -1 9 -9 16 -18 16 -10 0 -25 2 -34 6 -10 5
-19 1 -22 -8 -4 -11 -1 -16 11 -16 21 0 46 -37 47 -70 0 -18 7 -26 23 -28 12
-2 22 0 21 5 -3 20 2 27 10 14 8 -12 12 -12 25 -2 9 7 13 17 10 22 -3 5 1 9 8
9 8 0 23 6 33 14 19 14 19 15 2 33 -21 24 -23 81 -2 89 8 4 15 12 15 19 0 8 9
17 20 20 11 3 20 11 20 16 0 13 -14 11 -29 -3 -10 -11 -11 -10 -6 5 6 13 2 17
-16 17 -18 0 -20 -3 -10 -9 9 -6 11 -15 6 -27 -7 -17 -9 -16 -18 9 -12 31 -26
36 -29 10z"/>
<path d="M4063 8359 c6 -19 -27 -79 -43 -79 -6 0 -24 -9 -40 -20 -17 -11 -43
-29 -60 -40 -16 -11 -35 -20 -42 -20 -7 0 -53 -25 -103 -55 -49 -29 -122 -71
-162 -91 -62 -33 -71 -41 -69 -63 3 -21 9 -27 32 -29 23 -2 26 0 14 8 -13 8
-12 11 7 16 12 3 24 12 27 20 3 7 12 11 21 8 10 -4 15 0 15 11 0 11 5 15 15
11 8 -3 15 -2 15 3 0 19 -14 19 -40 -1 -15 -11 -34 -18 -42 -16 -18 7 62 45
111 53 22 4 42 12 44 20 8 20 69 48 77 35 4 -7 11 -6 20 5 7 8 18 15 24 15 7
0 45 23 85 50 40 28 79 50 87 50 8 0 14 5 14 10 0 6 5 10 12 10 6 0 3 -9 -7
-20 -18 -20 -18 -21 1 -14 15 5 14 1 -6 -15 -14 -11 -30 -21 -37 -21 -16 0
-73 -33 -73 -42 0 -5 8 -8 18 -8 10 0 28 -9 40 -20 12 -12 22 -16 22 -10 0 5
11 10 24 10 13 0 27 6 29 13 4 9 6 9 6 0 1 -7 -12 -19 -29 -28 -16 -9 -30 -18
-30 -20 0 -3 22 6 49 19 31 16 52 35 60 54 11 27 9 36 -40 118 -28 49 -49 82
-46 73z"/>
<path d="M4800 8325 c0 -8 16 -19 35 -26 19 -7 35 -16 35 -20 0 -5 -14 -3 -30
3 -38 13 -67 4 -51 -16 6 -7 9 -15 6 -18 -8 -8 139 -144 175 -163 17 -9 65
-38 107 -66 125 -81 110 -47 -47 109 -69 67 -95 99 -80 95 l24 -6 -21 22 c-15
16 -28 21 -41 17 -15 -5 -22 -1 -26 12 -8 24 -86 76 -86 57z"/>
<path d="M4489 8270 c-8 -6 -7 -9 2 -14 8 -3 -11 -4 -42 -2 -46 4 -57 1 -67
-15 -9 -14 -9 -19 0 -19 6 0 9 -3 6 -6 -4 -3 -16 -1 -27 6 -18 9 -21 8 -21 -9
0 -27 34 -44 90 -46 51 -2 70 -10 70 -29 0 -8 -13 -12 -35 -12 -19 1 -35 4
-35 8 0 3 -8 5 -17 4 -10 -2 -17 -6 -15 -10 2 -4 -4 -18 -12 -31 -11 -17 -12
-23 -3 -19 9 3 12 -6 9 -36 -4 -36 -2 -40 19 -40 23 -1 23 -1 5 -15 -15 -11
-17 -21 -12 -49 7 -35 28 -48 41 -26 3 6 1 10 -5 10 -8 0 -9 7 -5 18 4 9 8 23
8 29 0 14 13 6 56 -34 27 -27 41 -29 41 -8 0 17 36 39 50 30 12 -7 14 -65 2
-65 -4 0 -13 -13 -19 -30 -6 -16 -10 -30 -8 -30 12 0 50 49 47 61 -2 9 2 8 11
-4 10 -11 21 -15 33 -10 17 6 18 5 4 -13 -22 -28 -71 -72 -102 -91 -15 -9 -30
-23 -33 -30 -5 -15 9 -10 37 15 9 7 22 11 28 7 6 -4 17 -1 25 5 8 6 19 9 25 5
7 -4 18 2 26 14 8 12 21 21 28 21 8 0 16 7 20 15 4 10 14 13 36 9 19 -4 30 -2
30 5 0 6 -5 11 -11 11 -6 0 -9 6 -6 13 2 6 10 11 16 9 7 -1 10 2 6 8 -3 5 -13
10 -21 10 -10 0 -13 6 -9 19 7 24 -10 100 -26 115 -9 8 -11 7 -6 -6 12 -35
-13 -17 -45 32 -18 28 -37 50 -43 50 -15 0 -80 61 -88 82 -4 11 -13 15 -26 11
-12 -3 -21 -1 -21 6 0 6 -16 11 -35 11 -37 0 -43 -8 -23 -28 16 -16 6 -15 -28
3 -23 12 -25 15 -11 21 9 3 14 10 11 15 -3 5 28 9 70 9 74 0 76 -1 76 -25 0
-21 49 -85 64 -85 11 0 -38 99 -54 110 -3 3 -11 14 -17 24 -11 20 -44 28 -64
16z"/>
<path d="M3971 8061 c-25 -17 -48 -28 -53 -25 -4 3 -8 1 -8 -4 0 -12 -92 -57
-110 -54 -12 2 -12 1 -1 -6 15 -11 8 -16 -32 -26 -15 -4 -37 -16 -48 -27 -11
-11 -24 -17 -29 -14 -6 4 -10 1 -10 -4 0 -6 -6 -11 -14 -11 -8 0 -16 -5 -18
-10 -2 -6 -17 -13 -33 -16 -64 -11 -35 -16 60 -10 84 6 106 11 135 31 19 14
60 42 90 62 30 20 57 38 59 40 3 2 -1 9 -7 15 -19 19 -15 24 35 57 25 17 42
31 37 31 -5 0 -29 -13 -53 -29z"/>
<path d="M4802 8078 c-15 -15 -16 -31 0 -22 7 4 8 3 4 -5 -4 -6 0 -23 8 -36
17 -25 55 -46 136 -71 25 -8 65 -33 90 -55 27 -25 35 -36 20 -28 -13 7 -30 18
-38 25 -7 7 -19 11 -27 8 -8 -4 -15 -2 -15 4 0 6 -17 16 -37 23 -21 6 -50 20
-65 31 -32 22 -34 19 -13 -22 15 -30 70 -66 92 -62 7 2 17 -7 23 -18 6 -12 19
-20 28 -19 45 4 61 -2 70 -28 6 -16 11 -23 11 -16 1 7 8 10 18 6 13 -5 15 -2
10 11 -4 10 -7 23 -7 29 0 7 -24 40 -52 74 -29 34 -66 80 -82 102 -16 22 -33
38 -37 35 -5 -3 -6 2 -3 10 4 11 0 16 -11 16 -9 0 -13 -5 -10 -11 8 -12 -72
-2 -95 12 -11 7 -3 9 27 7 23 -2 39 0 37 4 -8 12 -69 9 -82 -4z"/>
<path d="M5000 8023 c0 -7 5 -13 10 -13 6 0 10 -7 10 -16 0 -8 21 -41 46 -72
53 -65 61 -81 152 -309 62 -156 70 -170 84 -154 13 15 12 25 -3 89 -10 39 -23
81 -29 92 -6 11 -8 20 -5 20 22 0 88 -235 100 -356 4 -38 9 -78 12 -89 5 -17
3 -18 -9 -8 -12 11 -14 9 -14 -10 1 -12 8 -27 16 -34 8 -6 12 -15 7 -19 -4 -4
-7 -2 -7 4 0 7 -5 12 -10 12 -6 0 -10 -6 -8 -14 2 -8 0 -14 -3 -13 -3 1 -13
-4 -22 -11 -13 -11 -17 -10 -26 5 -7 13 -13 15 -18 6 -9 -13 -53 17 -53 37 0
6 -4 9 -9 5 -5 -3 -12 -1 -15 4 -8 13 -108 62 -114 56 -8 -7 19 -35 34 -35 7
0 16 -5 20 -11 4 -8 0 -9 -15 -4 -11 3 -21 3 -21 -2 0 -17 31 -53 46 -53 8 0
14 -5 14 -11 0 -5 -4 -7 -10 -4 -18 11 -11 -19 20 -84 18 -38 27 -68 22 -73
-5 -5 -15 5 -23 24 -16 39 -55 100 -72 110 -7 4 -20 8 -31 8 -13 0 -17 -5 -13
-19 3 -14 1 -18 -10 -14 -9 4 -16 -2 -20 -16 -4 -17 -13 -21 -45 -21 -22 0
-49 -5 -61 -11 -17 -9 -19 -9 -11 1 13 14 7 50 -9 50 -6 0 -42 -10 -79 -22
l-69 -22 5 -36 c4 -26 3 -30 -4 -15 -5 11 -9 35 -9 54 -1 19 -5 48 -10 65 -20
69 -27 114 -20 135 6 15 4 21 -6 21 -16 0 -19 18 -9 44 3 8 13 12 22 9 14 -4
14 -3 3 5 -8 6 -16 16 -17 24 -1 7 -5 31 -9 53 -5 29 -4 36 4 25 6 -8 11 -24
11 -36 0 -26 24 -48 68 -62 27 -9 40 -9 65 5 31 15 50 37 53 58 1 6 2 17 3 25
1 13 3 13 10 0 6 -8 7 -18 4 -23 -3 -4 3 -18 14 -29 10 -12 12 -18 4 -13 -18
11 -32 -14 -20 -37 12 -22 26 -24 26 -3 0 8 -4 12 -8 9 -4 -2 -10 0 -14 6 -4
6 5 10 19 10 26 0 36 -23 16 -35 -18 -11 -10 -30 20 -48 17 -10 30 -25 30 -33
0 -8 7 -26 16 -40 9 -13 15 -26 13 -28 -2 -3 -40 -12 -84 -21 -44 -9 -84 -20
-89 -26 -14 -13 3 -12 82 6 37 8 81 16 97 18 19 3 29 9 27 18 -2 8 -5 21 -7
29 -7 32 -34 98 -71 175 -21 44 -39 89 -40 100 -1 11 -5 34 -7 50 -3 17 -6 39
-6 50 -1 11 -12 32 -26 47 -14 15 -25 33 -25 41 0 8 -9 22 -20 32 -11 10 -17
22 -14 26 3 5 1 9 -4 9 -6 0 -13 7 -16 16 -5 12 -1 14 16 8 21 -6 22 -5 8 12
-8 10 -23 30 -35 43 l-20 23 25 -7 c14 -4 30 -13 36 -21 13 -16 34 -19 34 -4
0 6 -4 10 -9 10 -4 0 -21 10 -36 22 -34 27 -73 32 -102 13 -12 -8 -30 -15 -40
-15 -27 -1 -64 -36 -57 -53 11 -30 33 -25 80 19 57 51 71 56 49 15 -10 -20
-11 -32 -4 -36 13 -9 3 -73 -15 -91 -18 -18 -25 -18 -47 2 -11 10 -36 16 -66
17 -26 0 -61 6 -76 14 -16 8 -31 13 -33 10 -2 -2 8 -10 24 -17 71 -36 119 -90
80 -90 -17 0 -98 -76 -98 -90 0 -7 14 0 31 14 17 14 35 26 40 26 16 0 -29 -76
-61 -104 -18 -15 -29 -31 -25 -38 4 -7 -5 0 -20 16 -22 24 -25 35 -21 67 6 43
-10 54 -20 14 -3 -14 -10 -25 -15 -25 -13 0 -55 27 -105 67 -23 18 -47 33 -54
33 -7 0 14 -20 46 -45 33 -24 73 -56 89 -70 27 -24 27 -25 5 -14 -38 18 -145
91 -148 101 -2 5 -15 21 -28 37 -13 16 -20 32 -16 36 4 5 2 5 -4 2 -6 -4 -19
2 -29 13 -19 21 -45 27 -45 10 0 -21 -69 26 -94 63 -14 21 -26 42 -26 47 0 6
-4 10 -9 10 -5 0 -17 3 -25 6 -12 5 -15 2 -10 -10 3 -9 2 -16 -3 -16 -5 0 -10
-7 -10 -16 0 -9 22 -26 53 -41 64 -30 84 -50 64 -63 -8 -5 -21 -5 -29 -1 -9 4
-38 8 -66 9 l-50 1 58 -14 c32 -8 65 -22 73 -30 9 -8 21 -15 27 -15 8 0 7 -4
-1 -12 -21 -21 -13 -36 23 -48 39 -13 48 -33 13 -29 -13 2 -29 -1 -37 -5 -10
-7 -12 -5 -6 3 6 10 3 11 -15 1 -17 -9 -24 -9 -30 0 -5 8 -9 6 -15 -7 -6 -16
-8 -16 -16 5 -6 17 -14 21 -34 18 -33 -6 -47 -15 -40 -27 3 -5 0 -6 -8 -3 -8
3 -18 1 -21 -4 -5 -9 19 -19 64 -28 8 -2 18 2 21 8 6 9 12 8 23 -2 9 -7 19
-10 23 -6 3 3 1 6 -5 6 -7 0 -12 5 -12 10 0 15 16 12 34 -6 9 -8 16 -11 16 -5
0 6 16 1 35 -11 32 -21 46 -40 28 -37 -5 1 -19 1 -32 0 -24 -1 -24 -1 -5 -23
l19 -21 -30 17 c-28 16 -33 16 -60 2 -27 -14 -28 -16 -7 -16 12 0 22 -4 22 -9
0 -5 -10 -12 -22 -16 l-23 -7 24 -7 c27 -7 41 -31 19 -31 -8 0 -20 6 -26 12
-10 10 -15 10 -23 -2 -8 -11 -9 -9 -4 9 5 17 4 22 -6 19 -8 -3 -13 -13 -11
-23 3 -14 -1 -16 -15 -10 -31 12 -64 13 -60 1 2 -6 22 -14 45 -19 47 -9 50
-16 25 -54 -10 -15 -13 -24 -7 -20 7 4 14 0 18 -8 3 -8 2 -14 -2 -14 -4 1 -16
1 -27 0 -15 -1 -17 -3 -7 -10 11 -7 11 -9 -2 -14 -9 -4 -22 -4 -30 -1 -8 3
-17 0 -22 -7 -5 -9 -2 -10 9 -6 9 3 19 2 22 -3 10 -16 55 -7 52 10 -1 8 4 14
11 13 6 -2 12 3 12 10 0 9 11 13 30 12 32 -2 55 -15 27 -15 -9 0 -17 -5 -17
-11 0 -7 -8 -18 -17 -25 -17 -12 -16 -13 5 -14 13 0 31 -4 41 -10 15 -8 18 -5
19 21 1 34 12 52 19 32 3 -7 13 -13 24 -13 10 0 19 -7 19 -15 0 -10 10 -15 26
-15 23 0 26 3 22 25 -3 14 -1 28 4 31 4 3 6 10 2 15 -3 5 -9 7 -14 4 -4 -3
-11 2 -14 11 -5 14 -9 14 -24 3 -9 -7 -14 -9 -10 -5 4 5 3 15 -3 23 -15 18 1
17 39 -3 24 -12 36 -13 49 -4 17 11 17 11 1 6 -10 -3 -18 -2 -18 3 0 9 36 22
43 15 2 -3 1 -23 -3 -46 -7 -34 -5 -41 10 -45 10 -3 16 -11 14 -18 -8 -19 26
-34 59 -28 15 3 27 1 27 -5 0 -6 -12 -13 -27 -16 -84 -16 -103 -18 -103 -7 0
6 -12 11 -26 11 -21 0 -25 -4 -21 -20 3 -11 0 -23 -6 -27 -17 -11 -98 -32
-124 -33 -12 0 -23 -4 -25 -8 -1 -5 -17 -12 -35 -15 -26 -5 -33 -3 -38 13 -8
25 -17 25 -32 1 -10 -16 -9 -18 8 -14 10 3 19 1 19 -5 0 -13 -44 -22 -88 -19
-18 2 -35 0 -38 -5 -3 -4 4 -8 16 -8 12 0 19 -4 15 -10 -3 -5 -13 -6 -22 -3
-10 4 -22 -2 -33 -16 -12 -17 -27 -23 -53 -23 -20 0 -35 -3 -32 -8 5 -9 -85
-56 -99 -52 -5 2 -12 -2 -16 -8 -4 -6 -13 -13 -21 -14 -20 -4 -79 -40 -79 -48
0 -4 13 -3 29 2 21 6 31 5 35 -3 2 -7 5 -5 5 4 1 18 27 33 41 24 4 -3 13 2 20
10 7 8 19 15 26 15 8 0 22 4 32 9 29 15 76 35 87 37 6 1 12 3 15 4 3 1 13 3
23 5 10 2 29 11 43 20 13 9 29 13 35 9 6 -3 19 2 30 12 10 9 19 12 19 6 0 -7
18 -3 45 9 25 11 54 19 63 16 10 -2 -2 -9 -28 -16 -25 -7 -50 -17 -56 -22 -6
-5 -19 -7 -28 -3 -9 3 -16 2 -16 -4 0 -6 -24 -18 -52 -27 -29 -10 -94 -37
-144 -60 -50 -23 -101 -46 -114 -50 -53 -17 -335 -164 -485 -253 -207 -123
-320 -198 -367 -244 -44 -44 -58 -47 -58 -13 0 14 -6 25 -13 25 -14 0 -57 44
-57 59 0 5 -8 26 -17 47 -9 22 -18 46 -19 54 -2 8 -8 37 -13 65 -12 65 -7 468
7 520 15 54 11 117 -5 103 -7 -6 -13 -17 -13 -25 0 -8 -13 -19 -30 -24 -34
-12 -37 -27 -14 -71 22 -42 20 -109 -2 -125 -27 -19 -30 -17 -48 35 -10 26
-21 55 -27 64 -12 24 -11 28 5 28 8 0 16 7 20 15 7 18 4 31 -6 27 -5 -1 -8 2
-8 7 0 5 6 11 12 13 9 3 8 9 -4 21 -9 10 -20 26 -23 37 -5 15 -12 19 -26 15
-14 -5 -24 2 -38 25 -30 50 -33 19 -5 -64 24 -70 24 -77 9 -92 -9 -9 -15 -17
-13 -18 2 -1 12 -8 23 -16 19 -14 19 -14 6 3 -8 10 -9 17 -3 17 6 0 16 -9 22
-19 12 -23 13 -54 2 -47 -4 2 -6 -12 -3 -32 5 -37 5 -37 10 -7 6 27 7 25 20
-25 8 -30 20 -64 26 -75 13 -20 18 -106 9 -137 -8 -26 -23 -22 -18 5 4 20 4
20 -6 -2 -6 -14 -9 -30 -6 -37 7 -18 -17 -35 -34 -24 -8 6 -24 10 -35 10 -15
0 -13 -4 11 -16 17 -8 41 -33 53 -57 12 -23 16 -34 8 -24 -16 20 -31 8 -21
-16 4 -11 -1 -15 -19 -13 -21 1 -23 4 -14 15 10 12 7 13 -18 7 -68 -18 -79
-14 -30 9 49 23 49 24 18 24 -31 1 -122 -32 -133 -48 -11 -17 -52 -32 -70 -26
-13 4 -20 2 -20 -7 0 -7 -11 -26 -25 -42 -34 -40 -31 -43 7 -10 32 27 103 63
123 64 6 0 11 -8 11 -19 0 -10 -5 -18 -11 -17 -5 1 0 -2 13 -8 23 -10 30 -26
11 -26 -6 0 -20 5 -32 12 -20 10 -21 10 -8 -6 12 -14 12 -18 -5 -31 -10 -8
-24 -15 -31 -15 -17 0 -26 -36 -13 -59 5 -11 20 -28 33 -37 21 -16 17 -16 -28
2 -20 7 -20 7 -1 -14 30 -35 75 -53 113 -46 27 5 32 3 27 -9 -5 -14 -62 -32
-91 -30 -7 0 -10 -3 -7 -8 4 -7 61 -5 104 4 12 2 90 -24 95 -33 3 -5 -19 -21
-50 -35 -45 -22 -55 -31 -55 -51 0 -21 3 -23 19 -14 11 5 23 15 26 20 4 6 15
8 26 5 19 -6 49 14 49 33 0 16 45 8 48 -8 2 -11 -12 -20 -45 -30 -26 -8 -54
-13 -61 -12 -7 2 -15 -4 -18 -13 -3 -8 -15 -15 -25 -15 -10 0 -19 -4 -19 -10
0 -14 16 -12 48 4 16 8 55 23 87 35 33 11 67 22 76 26 12 4 16 -1 16 -24 0
-19 -5 -27 -12 -24 -7 2 -29 -3 -50 -11 -20 -9 -47 -13 -59 -10 -14 3 -48 -8
-95 -32 -68 -34 -71 -37 -56 -54 10 -12 12 -19 5 -22 -21 -7 19 -89 66 -135
36 -34 49 -41 60 -33 12 11 64 22 64 14 0 -2 -16 -12 -37 -22 l-36 -19 22 -22
c17 -17 31 -22 52 -19 34 5 38 -9 9 -42 -11 -13 -25 -42 -30 -64 -6 -23 -15
-51 -20 -64 -17 -40 -11 -38 35 15 43 49 132 103 169 103 8 0 18 4 21 10 4 6
-1 7 -12 3 -28 -11 39 69 86 101 42 30 47 62 7 50 -57 -17 -91 -47 -150 -128
-12 -18 -14 -17 -18 17 -4 36 -2 38 49 67 29 17 53 37 53 45 0 9 10 15 25 15
28 0 30 3 13 33 -11 20 -25 85 -32 147 -1 14 -8 38 -14 53 -21 49 -13 44 24
-17 37 -63 94 -171 94 -181 0 -4 -5 -3 -11 1 -6 3 -3 -8 6 -25 11 -23 21 -30
34 -26 9 3 45 6 79 7 78 2 82 18 5 19 -51 1 -54 2 -28 10 17 5 42 6 58 3 30
-6 31 -3 18 44 -6 20 -6 30 0 27 5 -4 9 -14 9 -23 0 -9 7 -26 15 -36 8 -11 15
-36 15 -57 0 -72 100 -188 137 -157 11 9 12 7 6 -8 -3 -10 -11 -22 -17 -26 -8
-5 -7 -8 1 -8 7 0 10 -7 7 -14 -4 -9 17 -37 54 -73 52 -50 60 -62 55 -85 -4
-19 -1 -28 7 -28 9 0 10 -3 1 -14 -9 -11 13 -25 116 -77 71 -35 144 -73 164
-85 22 -14 41 -19 49 -14 7 4 20 6 29 4 9 -3 -35 20 -97 50 -118 58 -235 134
-245 161 -6 15 8 22 15 8 12 -28 192 -126 286 -157 108 -36 326 -45 467 -21
90 16 240 61 294 90 116 60 262 182 355 298 44 54 63 56 22 3 -14 -19 -26 -38
-26 -42 0 -4 18 17 39 47 22 30 46 61 53 69 7 9 10 11 6 6 -11 -14 -10 -38 1
-32 5 4 21 2 36 -4 17 -7 24 -7 20 0 -3 6 -13 10 -21 10 -20 0 -18 27 4 38 9
5 26 6 37 1 34 -13 42 -10 63 25 25 43 38 81 24 72 -6 -3 -13 -2 -17 4 -11 17
-44 11 -55 -11 -7 -11 -14 -18 -17 -15 -5 5 35 76 43 76 3 0 21 -7 42 -15 34
-15 38 -15 49 1 15 21 17 34 4 34 -5 0 -8 11 -8 25 0 13 3 22 8 19 5 -3 9 -11
9 -19 0 -7 6 -15 14 -18 19 -8 15 23 -6 45 -20 20 -24 73 -8 83 6 4 8 11 5 16
-4 5 0 9 8 9 10 0 16 16 20 51 4 28 10 56 15 63 6 6 13 26 17 43 8 40 21 49
43 31 15 -12 15 -10 -1 15 -19 29 -13 34 15 13 18 -13 14 -54 -6 -69 -7 -5 -5
-12 6 -21 14 -10 18 -35 22 -132 4 -104 10 -146 31 -241 4 -16 10 -21 23 -17
12 4 13 3 4 -3 -10 -7 -8 -21 10 -64 12 -30 28 -62 36 -71 8 -10 12 -18 8 -18
-4 0 2 -12 13 -26 12 -15 21 -31 21 -35 0 -5 23 -31 50 -58 28 -27 50 -54 50
-60 0 -6 6 -11 13 -11 8 0 22 -9 32 -20 10 -11 20 -18 23 -15 3 2 13 -5 23
-16 10 -12 23 -18 29 -14 6 3 9 1 8 -7 -2 -7 4 -12 14 -10 9 1 20 -3 24 -9 5
-9 -9 -10 -58 -5 -63 6 -116 28 -223 91 -36 22 -41 23 -57 8 -11 -10 -18 -12
-18 -5 0 7 5 12 10 12 17 0 11 18 -7 24 -10 3 -29 22 -41 41 -15 21 -38 38
-60 45 -21 7 -47 24 -59 38 -13 15 -23 22 -23 16 0 -5 5 -15 12 -22 9 -9 8
-12 -5 -12 -10 0 -24 8 -33 19 -10 11 -24 16 -35 14 -14 -4 -18 -1 -13 10 3 8
0 18 -5 22 -6 3 -8 11 -5 17 4 6 -1 6 -14 -1 -21 -11 -45 -65 -34 -76 4 -4 -3
-5 -14 -1 -15 5 -24 2 -28 -11 -6 -14 -9 -15 -15 -4 -7 11 -12 9 -21 -9 -8
-15 -15 -19 -19 -11 -4 6 -15 9 -24 5 -9 -3 -14 -10 -11 -16 3 -5 0 -9 -7 -7
-8 1 -21 1 -29 0 -13 -1 -13 -2 0 -11 12 -8 9 -10 -11 -10 -14 0 -33 -8 -42
-18 -26 -29 -20 -38 8 -12 26 25 47 21 25 -5 -10 -12 -10 -15 3 -15 9 0 21 9
27 20 6 11 20 25 31 31 38 20 11 -31 -45 -86 -51 -51 -125 -108 -113 -88 4 6
0 14 -9 17 -8 3 -12 2 -9 -4 7 -11 -25 -29 -41 -23 -6 2 -14 -3 -17 -12 -4 -8
-1 -15 6 -15 7 -1 1 -10 -12 -20 -21 -18 -25 -19 -35 -4 -7 8 -18 14 -26 12
-10 -2 -14 3 -12 15 3 18 -6 22 -24 9 -15 -10 -25 -42 -14 -42 6 0 10 -4 10
-9 0 -5 -10 -7 -22 -4 -21 4 -22 3 -5 -10 16 -13 15 -15 -15 -27 -18 -6 -49
-18 -68 -25 -19 -7 -44 -17 -55 -21 -11 -4 -25 -6 -32 -5 -6 1 -14 -3 -18 -9
-3 -5 -17 -10 -30 -10 -13 0 -31 -7 -39 -16 -9 -8 -16 -11 -16 -5 0 13 -47 4
-69 -13 -11 -8 -13 -8 -7 2 5 8 1 12 -13 12 -11 0 -23 -5 -26 -10 -4 -6 -24
-8 -48 -4 -40 5 -41 5 -22 -11 12 -10 33 -15 52 -13 24 3 30 1 22 -8 -5 -7
-26 -11 -46 -10 -32 1 -37 -2 -50 -34 -8 -19 -21 -42 -29 -51 -14 -15 -11 -16
28 -8 63 12 62 12 88 -33 36 -67 90 -170 90 -174 0 -14 -22 0 -30 19 -8 17 -9
15 -4 -13 4 -19 10 -36 15 -38 5 -2 9 -16 9 -30 -1 -23 -2 -25 -13 -11 -16 20
-45 31 -52 19 -4 -6 0 -10 7 -10 8 -1 6 -6 -5 -15 -18 -13 -18 -14 2 -24 11
-6 28 -11 38 -11 16 -1 15 -3 -6 -20 -21 -18 -21 -20 -5 -20 18 -1 18 -1 0
-15 -10 -7 -15 -19 -11 -25 6 -9 9 -9 15 0 6 9 12 9 30 0 18 -10 25 -8 44 9
30 28 43 26 61 -9 16 -31 32 -42 21 -15 -3 9 0 15 8 15 10 0 12 7 8 22 -3 13
-1 19 6 15 5 -4 13 -1 15 5 4 10 8 10 15 -1 8 -12 15 -9 36 15 15 16 25 22 24
14 -2 -8 -7 -18 -13 -22 -5 -4 -6 -10 -2 -14 4 -4 13 0 20 8 17 22 88 53 172
74 39 10 72 19 74 21 2 2 -6 12 -19 23 -13 11 -20 20 -15 20 4 0 2 7 -5 15 -7
8 -9 15 -4 15 13 0 72 -98 139 -230 106 -209 105 -207 105 -176 0 15 -12 47
-26 71 -14 25 -22 50 -18 56 4 7 3 9 -2 6 -6 -3 -21 15 -34 41 -14 26 -49 91
-78 145 -29 55 -52 100 -50 102 2 1 39 20 83 42 109 54 300 155 355 187 25 14
53 26 63 26 10 0 15 5 12 10 -3 6 0 10 7 10 7 0 23 3 35 6 18 5 25 1 32 -19 7
-19 16 -24 36 -21 15 1 34 9 43 17 38 32 61 39 93 25 16 -7 32 -22 35 -32 4
-11 22 -52 41 -93 19 -40 32 -77 28 -82 -3 -5 -1 -12 5 -16 5 -3 10 -15 10
-25 0 -10 7 -26 16 -34 8 -9 12 -16 7 -16 -4 0 -2 -4 6 -9 7 -5 13 -22 13 -37
0 -16 7 -38 14 -49 8 -11 14 -28 14 -38 0 -14 5 -17 23 -12 12 4 26 11 31 16
6 5 18 9 28 9 9 0 33 13 51 30 19 16 42 30 50 30 9 0 20 7 25 16 7 13 13 9 33
-20 13 -20 28 -36 33 -36 4 0 6 -7 2 -15 -8 -21 11 -19 23 2 5 10 13 15 16 11
4 -4 -3 -23 -15 -42 -21 -34 -18 -45 6 -28 6 4 14 17 18 30 4 12 14 22 22 22
8 0 22 16 30 35 8 19 17 35 19 35 12 0 -9 -56 -26 -72 -11 -9 -26 -33 -35 -54
-13 -32 -13 -39 -1 -51 12 -12 13 -10 9 16 -3 21 1 32 14 39 11 6 28 31 39 56
13 30 28 49 42 52 14 4 20 11 16 20 -3 9 0 14 7 12 7 -2 15 3 18 11 3 8 0 11
-7 7 -17 -11 -14 41 5 69 15 23 15 25 0 25 -12 0 -15 6 -10 25 7 29 -20 95
-40 95 -7 0 -17 10 -23 22 -6 15 -12 18 -17 10 -4 -7 -2 -12 3 -12 6 0 11 -7
11 -15 0 -8 -4 -15 -10 -15 -13 0 -24 46 -14 61 4 8 3 9 -4 5 -8 -4 -12 0 -12
11 0 11 -6 25 -12 32 -11 11 -10 13 4 8 15 -5 16 -2 8 19 -15 38 -12 64 6 64
19 0 104 49 104 60 0 22 -21 17 -48 -10 -24 -23 -39 -30 -70 -30 -37 0 -39 1
-34 27 4 24 6 25 18 9 8 -11 14 -13 19 -6 3 5 11 8 16 5 5 -3 6 2 2 11 -5 14
-2 16 15 12 28 -8 28 7 1 35 l-21 22 7 -22 c7 -26 -6 -30 -25 -8 -7 8 -16 13
-20 10 -5 -3 -14 1 -22 8 -7 8 -23 19 -35 25 -12 7 -36 35 -55 63 -27 42 -34
48 -36 31 -2 -11 4 -33 13 -49 16 -27 16 -27 0 -5 -10 12 -24 22 -32 22 -13 0
-13 -2 -2 -17 13 -15 12 -15 -11 -3 -14 7 -26 13 -27 12 -19 -13 -59 46 -79
116 l-14 47 6 -50 c3 -27 14 -63 26 -78 l20 -29 -22 12 c-12 6 -31 32 -42 56
-16 38 -18 54 -10 104 5 32 5 57 0 54 -4 -3 -8 -14 -8 -25 0 -11 -6 -32 -14
-47 -12 -24 -12 -32 4 -64 15 -32 16 -38 3 -42 -23 -9 -30 -7 -13 4 10 7 11
13 5 18 -6 4 -21 21 -34 37 -22 28 -23 29 -16 5 4 -14 13 -28 19 -32 6 -4 7
-10 3 -14 -4 -4 -15 0 -25 9 -10 10 -23 17 -28 17 -5 0 -43 34 -84 75 -85 85
-83 101 3 24 32 -28 61 -49 64 -45 4 3 1 12 -5 18 -15 15 -16 45 -2 53 6 3 7
-1 4 -9 -3 -9 -2 -16 3 -16 6 0 15 -12 22 -26 6 -15 14 -24 18 -21 3 4 1 13
-6 21 -6 8 -14 37 -18 65 -5 41 -3 51 8 49 8 -2 12 3 10 12 -2 8 -4 23 -5 33
0 21 -3 21 -22 3 -8 -8 -14 -34 -15 -58 0 -36 -2 -40 -10 -20 -10 27 -5 82 11
112 8 15 8 20 -2 20 -9 0 -9 3 2 10 12 7 12 10 1 10 -8 0 -11 6 -7 18 7 16 6
16 -11 0 -12 -13 -16 -30 -14 -59 2 -28 -1 -39 -8 -35 -13 9 -13 12 2 -49 7
-27 11 -60 9 -73 -3 -21 -7 -19 -51 25 -53 53 -71 81 -71 113 0 31 15 17 30
-30 7 -22 20 -46 28 -53 13 -10 14 -8 7 12 -5 16 -4 21 4 17 6 -4 11 -2 11 3
0 6 -7 11 -15 11 -9 0 -12 6 -8 15 3 10 1 15 -8 13 -7 -2 -14 6 -16 17 -1 11
0 14 3 8 3 -7 10 -13 16 -13 6 0 3 11 -6 25 -15 23 -15 25 1 26 11 0 13 3 6 6
-7 2 -13 12 -13 21 0 12 3 13 12 4 15 -15 32 -16 23 -1 -4 6 2 13 14 16 11 3
19 9 16 13 -5 7 -111 -6 -128 -17 -6 -3 -7 -1 -3 5 3 6 -2 13 -13 17 -14 4
-19 13 -17 30 2 14 5 28 8 31 3 3 0 29 -8 57 -15 57 -26 169 -24 262 1 64 7
82 17 47 3 -12 8 -22 12 -22 12 0 29 83 28 128 -1 23 1 42 6 42 7 0 11 -30 8
-60 -2 -13 -1 -13 8 0 6 8 11 22 11 31 0 9 6 16 13 16 6 0 19 4 28 7 12 5 18
0 23 -16 l7 -23 9 23 c6 13 8 39 5 58 -4 30 -2 33 13 25 9 -4 22 -7 27 -5 7 3
10 -31 9 -92 -2 -83 10 -270 19 -328 2 -11 8 -21 13 -23 5 -2 9 64 9 154 1
129 3 157 15 161 8 3 12 1 8 -3 -4 -5 -3 -14 3 -21 6 -8 9 -21 5 -29 -3 -9 1
-18 11 -22 15 -6 14 -7 -1 -18 -12 -9 -14 -21 -10 -44 4 -17 11 -31 16 -31 6
0 8 9 5 21 -4 15 -2 19 9 15 9 -3 12 -1 9 4 -3 6 -13 10 -22 10 -13 0 -13 3
-3 15 7 8 19 15 26 15 19 0 18 15 -3 36 -12 12 -14 19 -6 21 7 3 9 11 6 19 -3
8 0 14 6 14 6 0 11 -4 11 -10 0 -5 6 -7 14 -4 10 4 14 -2 12 -19 0 -14 -4 -23
-8 -20 -10 5 -11 -29 -7 -169 1 -42 33 -3 38 45 0 8 11 19 24 25 17 8 18 11 5
11 -18 1 -26 31 -9 31 5 0 11 9 14 21 5 20 6 20 39 3 25 -14 29 -19 16 -22
-10 -2 -18 -7 -19 -10 0 -4 -2 -15 -4 -24 -4 -23 10 -32 31 -20 11 6 13 11 5
16 -7 5 -5 15 8 34 11 15 22 44 26 65 3 20 10 37 16 37 5 0 7 11 3 25 -5 19
-2 25 10 25 9 0 15 5 14 12 -2 6 5 14 15 16 20 4 22 -10 5 -41 -6 -12 -13 -37
-14 -56 -2 -19 -7 -37 -12 -40 -4 -3 -7 -15 -7 -26 0 -11 -2 -24 -6 -30 -3 -5
-11 -37 -18 -70 -6 -33 -16 -78 -21 -100 -5 -26 -5 -44 2 -53 8 -9 7 -11 -6
-6 -9 3 -16 1 -16 -5 0 -6 4 -11 10 -11 5 0 7 -7 4 -15 -4 -8 -1 -15 5 -15 6
0 11 3 12 8 2 26 9 46 18 55 14 14 3 -93 -14 -138 -5 -13 1 -9 16 10 13 16 24
32 24 35 5 43 19 106 31 128 7 15 14 34 14 43 0 9 3 19 7 23 8 8 9 12 11 59 1
15 6 27 12 27 5 0 9 -15 9 -32 -1 -18 2 -48 6 -65 5 -21 4 -33 -2 -33 -6 0
-16 -21 -23 -47 -7 -27 -14 -57 -17 -68 -5 -18 -3 -17 16 4 12 14 20 30 17 37
-2 6 4 21 15 33 11 12 18 25 14 30 -3 5 1 12 7 15 10 5 10 7 1 12 -17 8 -16
24 1 24 8 0 17 7 20 16 9 22 8 24 -9 24 -13 0 -13 3 -3 20 7 11 23 20 36 20
19 0 22 4 17 23 -5 17 -4 19 4 7 10 -14 16 -7 12 14 -1 5 4 4 11 -2 14 -11 49
-11 48 1 0 4 0 12 0 18 0 7 -10 9 -25 5 -18 -5 -25 -2 -25 9 0 18 5 18 50 1
68 -25 110 -46 110 -55 0 -4 -9 -20 -20 -34 -11 -14 -20 -30 -20 -36 0 -6 -5
-11 -10 -11 -6 0 -10 16 -8 35 1 21 7 35 15 35 7 0 13 5 13 10 0 15 -26 12
-40 -5 -7 -9 -14 -30 -15 -48 -2 -18 -8 -45 -14 -60 -6 -16 -11 -33 -11 -39 0
-13 -43 -92 -52 -96 -13 -6 -47 -67 -53 -97 -4 -17 -6 -45 -6 -63 1 -21 -4
-34 -14 -38 -20 -8 -19 -24 1 -24 8 0 13 4 10 9 -7 10 24 25 33 16 3 -3 -1
-10 -9 -15 -8 -5 -11 -12 -7 -16 7 -7 37 13 35 24 -2 21 4 32 17 32 9 0 12 6
9 15 -4 8 -2 15 3 15 6 0 16 19 24 43 7 23 19 48 26 55 7 7 13 20 13 28 0 8 5
14 10 14 6 0 10 5 10 11 0 6 9 24 21 40 11 16 17 29 13 29 -3 0 -1 7 6 15 7 8
9 15 4 15 -5 1 0 9 12 18 12 10 26 28 33 40 6 12 17 21 24 19 7 -1 11 6 11 16
-2 19 7 22 22 7 8 -8 -1 -34 -27 -87 -21 -41 -42 -80 -48 -86 -16 -16 -13 -30
5 -23 12 5 15 2 10 -10 -5 -14 -4 -15 9 -4 9 7 13 20 10 29 -3 8 -3 12 1 8 4
-4 18 8 31 25 27 38 29 45 6 27 -15 -12 -16 -12 -8 1 35 60 57 90 66 90 6 0
-1 -14 -15 -31 -29 -34 -30 -38 -17 -58 6 -9 11 -10 15 -2 4 6 5 15 2 20 -3 4
5 6 19 4 21 -5 22 -8 13 -29 -6 -13 -18 -24 -26 -24 -9 0 -12 -3 -9 -6 8 -8
-33 -84 -45 -84 -5 0 -6 -4 -3 -10 3 -5 2 -10 -2 -10 -5 0 -22 -20 -37 -44
-15 -25 -35 -47 -43 -51 -13 -4 -14 -3 -3 10 7 8 9 15 5 15 -4 0 -2 7 5 15 17
21 5 31 -16 14 -10 -8 -20 -12 -23 -10 -6 4 -89 -111 -117 -162 -8 -15 -12
-32 -8 -38 3 -5 19 16 34 48 16 32 40 72 55 88 27 31 24 14 -4 -19 -12 -14
-13 -20 -3 -23 6 -3 12 -9 12 -15 0 -6 -6 -8 -13 -5 -14 5 -51 -39 -38 -47 4
-3 7 -17 6 -30 -2 -15 3 -27 12 -30 12 -5 14 -1 9 19 -5 20 -3 23 11 18 12 -5
15 -2 11 8 -7 17 31 46 41 32 3 -4 17 -7 31 -7 68 3 186 83 358 242 19 17 38
32 42 32 4 0 12 10 18 23 10 21 11 21 11 1 1 -11 -5 -26 -11 -33 -10 -11 -8
-11 9 0 24 15 38 39 23 39 -6 0 -10 4 -10 10 0 5 6 8 13 6 6 -3 24 -7 40 -10
15 -4 27 -13 27 -21 0 -8 5 -15 10 -15 6 0 10 -9 10 -21 0 -12 4 -17 11 -14 6
4 16 -1 23 -11 15 -20 66 -31 66 -14 0 6 -10 15 -22 20 -17 6 -18 9 -6 9 9 1
20 -4 23 -9 4 -7 17 0 31 16 44 46 35 20 -14 -45 -26 -34 -57 -76 -68 -91 -12
-16 -25 -26 -29 -22 -5 4 -5 1 -1 -6 5 -9 0 -19 -13 -28 -12 -9 -19 -20 -15
-25 3 -6 12 -3 20 8 12 16 13 15 8 -14 -5 -26 -3 -34 12 -40 11 -4 25 -13 32
-20 11 -11 10 -13 -8 -13 -17 0 -21 -5 -17 -20 3 -11 1 -20 -5 -20 -5 0 -7 -4
-3 -10 3 -5 -24 -52 -60 -104 -36 -52 -65 -98 -65 -101 0 -4 13 3 29 14 16 12
34 21 41 21 6 0 9 4 6 9 -3 5 1 11 9 15 8 3 15 10 15 16 0 10 77 127 113 173
17 21 21 21 41 1 18 -18 21 -34 6 -34 -5 0 -10 7 -10 17 0 31 -10 6 -15 -38
-9 -78 -13 -103 -31 -164 -23 -84 -30 -140 -14 -130 6 4 10 18 7 31 -6 33 21
31 33 -2 6 -15 16 -24 24 -21 9 4 12 -2 8 -18 -3 -16 2 -27 17 -35 12 -6 19
-15 16 -21 -4 -5 -1 -9 4 -9 17 0 13 21 -6 36 -17 12 -17 13 2 20 11 5 27 15
35 24 8 8 12 11 8 6 -13 -16 -9 -31 4 -18 7 7 23 12 36 12 18 0 22 4 17 19 -3
11 0 21 8 24 11 4 14 -2 13 -24 -1 -16 -5 -28 -10 -27 -5 2 -12 -7 -17 -19 -6
-16 -17 -23 -34 -23 -14 0 -25 5 -25 10 0 6 -5 10 -10 10 -7 0 -7 -7 0 -20 6
-11 15 -18 20 -15 5 3 11 1 15 -4 3 -6 12 -8 20 -4 8 3 15 0 15 -6 0 -6 -9
-11 -20 -11 -11 0 -20 4 -20 8 0 5 -7 9 -15 9 -8 0 -15 -7 -15 -14 0 -8 4 -12
8 -9 4 2 14 1 22 -5 13 -7 12 -9 -2 -9 -21 0 -18 -47 3 -61 8 -4 14 -14 14
-21 1 -7 6 -12 13 -11 7 2 12 -2 12 -7 0 -6 -4 -10 -10 -10 -5 0 -10 -4 -10
-10 0 -21 51 -120 66 -128 11 -6 13 -11 5 -16 -6 -4 -11 -2 -11 3 0 15 -16 14
-18 -1 -2 -20 -24 -102 -31 -118 -4 -8 -22 -18 -39 -22 -34 -9 -41 -22 -18
-35 7 -4 19 -19 26 -32 7 -15 8 -21 1 -17 -6 4 -11 0 -11 -10 0 -9 -8 -23 -17
-30 -17 -13 -17 -15 2 -30 20 -16 20 -16 -2 -11 -31 7 -29 -1 2 -13 34 -13 32
-37 -5 -44 -16 -3 -44 -9 -60 -12 -57 -11 -20 -27 46 -21 39 4 64 2 64 -3 0
-6 9 -10 20 -10 11 0 20 6 20 14 0 7 13 16 30 20 43 8 42 40 -1 34 -33 -5 -53
17 -29 32 9 6 7 10 -9 15 -22 7 -27 20 -11 30 6 3 10 2 10 -3 0 -6 23 -12 52
-14 42 -2 52 0 56 14 2 11 13 17 26 16 18 -2 21 -7 18 -44 -3 -35 -1 -42 14
-41 11 1 18 -6 19 -21 1 -13 6 -27 11 -30 5 -4 9 -13 10 -19 2 -32 5 -35 23
-30 12 3 22 -1 25 -9 3 -8 11 -14 17 -14 14 0 2 72 -14 82 -14 9 -8 15 18 20
14 2 20 -3 21 -17 2 -42 5 -45 38 -45 31 0 33 2 28 28 -3 18 -1 24 6 17 6 -5
13 -27 17 -47 l7 -37 -48 -4 c-46 -3 -45 -4 13 -5 34 -1 65 -6 68 -12 3 -5 -2
-10 -12 -10 -37 -1 -128 -13 -133 -18 -3 -2 0 -7 7 -9 8 -3 10 -15 6 -34 -4
-23 -2 -29 11 -29 10 0 14 -5 11 -10 -4 -6 -11 -8 -16 -5 -5 4 -9 1 -9 -4 0
-6 4 -11 10 -11 11 0 1 -30 -16 -47 -9 -9 -14 -9 -23 0 -7 7 -6 -1 3 -17 11
-22 12 -33 3 -47 -10 -16 -13 -16 -20 -4 -4 9 -12 13 -18 10 -13 -8 -11 -33 3
-49 10 -10 22 -3 62 41 28 29 56 53 62 53 7 0 16 4 19 10 3 6 -1 7 -9 4 -14
-5 -14 -2 0 26 11 20 21 29 31 26 8 -3 20 -6 26 -6 7 0 1 -9 -13 -20 l-25 -20
34 7 c23 4 36 2 43 -8 7 -11 11 -11 15 -1 6 14 43 17 43 2 0 -5 -8 -7 -17 -4
-17 5 -17 5 0 -6 9 -6 25 -10 35 -9 30 3 37 -1 22 -12 -11 -8 -12 -12 -2 -16
7 -2 19 -11 27 -19 7 -8 18 -14 22 -13 20 3 27 -2 13 -11 -11 -8 -7 -9 17 -5
17 3 35 0 38 -5 4 -6 11 -7 17 -4 6 4 5 -3 -2 -16 -7 -12 -17 -19 -26 -16 -8
3 -14 0 -14 -5 0 -11 -29 -8 -62 6 -13 5 -18 3 -18 -8 0 -8 -7 -20 -15 -27 -8
-7 -15 -18 -14 -24 0 -7 2 -6 6 2 2 6 9 12 14 12 4 0 6 -7 3 -15 -6 -16 11
-21 20 -6 8 12 116 13 116 1 0 -6 3 -9 8 -9 4 1 14 1 22 0 13 -1 13 -2 0 -11
-21 -13 -3 -12 37 2 20 7 32 17 29 25 -5 13 20 6 61 -16 47 -25 147 -36 171
-18 8 6 12 6 12 -2 0 -6 5 -11 10 -11 6 0 10 8 8 18 -2 14 3 16 32 14 45 -5
73 -20 63 -35 -5 -9 -3 -9 9 0 8 7 18 10 21 6 4 -3 7 -1 7 6 0 7 -6 11 -13 8
-7 -3 -19 3 -25 14 -11 17 -10 18 14 9 14 -6 32 -10 41 -10 13 0 13 3 3 15
-11 13 -7 15 23 15 28 0 40 -6 57 -30 28 -39 57 -55 57 -32 0 9 -5 23 -11 31
-9 12 -8 13 3 7 16 -10 31 9 30 39 0 19 -1 19 -12 -2 -12 -21 -13 -20 -15 20
-1 31 2 44 12 44 8 0 12 -6 9 -14 -3 -7 -1 -13 4 -13 5 0 14 16 20 35 6 20 7
35 2 35 -5 0 -9 -8 -9 -17 0 -13 -6 -11 -29 11 -23 22 -37 27 -60 24 l-30 -4
22 30 c11 16 16 27 10 23 -12 -7 -58 61 -48 71 6 6 39 -27 48 -48 3 -9 6 -3 6
13 1 17 -4 27 -13 27 -8 0 -18 9 -21 20 -3 11 -11 20 -16 20 -5 0 -9 4 -9 9 0
12 33 8 45 -5 14 -16 60 -30 51 -15 -4 6 -13 11 -21 11 -7 0 -16 11 -19 25 -4
14 -20 32 -39 41 -28 15 -30 18 -12 24 16 5 13 8 -15 14 -33 7 -34 8 -12 16
13 6 32 6 47 0 27 -10 33 -25 13 -33 -10 -4 -10 -6 -1 -6 7 -1 32 -19 55 -41
24 -22 45 -35 46 -30 5 13 -18 70 -27 70 -4 0 -7 9 -8 20 -1 11 -17 41 -35 67
-18 27 -35 61 -38 77 -3 16 -12 31 -20 33 -12 4 -13 3 -1 -5 7 -5 10 -15 6
-22 -5 -8 -11 -6 -21 8 -9 14 -35 22 -91 31 -43 7 -90 14 -105 17 -23 5 -27 2
-22 -10 3 -9 10 -13 15 -10 5 3 9 0 9 -5 0 -12 77 -53 135 -71 74 -23 125 -50
141 -76 9 -13 14 -27 10 -31 -3 -3 -6 -1 -6 5 0 7 -4 12 -10 12 -5 0 -19 9
-31 21 -12 12 -29 19 -40 16 -10 -3 -16 -1 -13 4 3 5 -3 12 -13 15 -68 24
-190 81 -201 94 -8 9 -15 11 -18 5 -2 -6 -23 -9 -45 -7 -56 6 -44 -10 28 -38
32 -13 63 -27 70 -32 7 -5 13 -4 16 4 4 9 8 10 14 2 4 -5 34 -16 66 -23 31 -7
57 -16 57 -21 0 -11 -54 -20 -58 -9 -2 5 -15 9 -28 9 -18 0 -23 4 -18 13 5 8
2 8 -9 -2 -11 -9 -17 -10 -17 -2 0 6 -3 10 -7 9 -5 -1 -26 7 -48 19 -22 11
-51 23 -65 26 -14 4 -36 16 -48 27 -13 12 -29 19 -37 16 -7 -2 -15 0 -18 7 -2
7 -27 12 -65 12 -58 0 -61 1 -56 21 5 19 2 21 -22 16 -19 -3 -31 -15 -42 -42
l-16 -36 -36 17 c-20 10 -48 21 -63 24 -23 6 -27 4 -28 -16 -1 -19 -2 -20 -6
-6 -4 15 -11 18 -31 12 -15 -3 -48 -10 -74 -15 -27 -5 -52 -12 -58 -15 -5 -3
-10 -2 -10 4 0 5 6 12 13 14 6 3 2 6 -10 6 -14 1 -23 -5 -23 -14 0 -10 -11
-15 -35 -15 -24 0 -35 5 -35 15 0 8 -4 15 -10 15 -5 0 -10 -10 -10 -22 0 -12
-3 -18 -7 -14 -5 4 -8 41 -8 81 0 62 2 72 13 61 8 -8 14 -31 15 -52 0 -22 7
-45 14 -53 17 -16 14 -18 47 46 l26 52 -35 -6 c-22 -4 -35 -2 -35 5 0 6 7 9
16 5 21 -8 61 15 67 38 3 11 10 19 16 19 6 0 8 -7 4 -16 -5 -13 1 -15 38 -10
75 9 113 17 141 28 15 5 39 7 53 4 14 -4 25 -2 25 4 0 5 4 10 9 10 4 0 6 -11
3 -25 -6 -36 17 -32 31 5 7 18 19 30 29 30 21 0 22 -4 7 -32 -15 -28 0 -36 59
-31 26 3 66 0 90 -5 28 -7 44 -7 48 0 4 6 51 8 125 5 68 -3 121 -1 124 4 4 5
0 9 -8 9 -8 0 -20 7 -27 15 -11 13 -10 14 6 9 10 -4 27 -14 37 -22 18 -16 107
-25 107 -12 0 4 -6 13 -14 19 -14 12 -27 57 -18 66 4 4 6 60 3 108 -1 10 -12
22 -26 27 -14 5 -25 12 -25 14 0 3 7 3 16 -1 11 -4 15 -2 12 7 -3 9 -20 14
-48 15 -25 0 -45 5 -48 13 -2 6 -11 12 -20 12 -15 0 -15 -2 -2 -10 8 -5 13
-10 10 -10 -3 -1 -26 -2 -52 -4 -25 -2 -60 -10 -76 -19 -17 -8 -36 -11 -43 -6
-7 4 -25 1 -40 -7 -31 -15 -69 -19 -69 -6 0 5 10 8 23 8 13 -1 22 5 22 14 0 8
-10 16 -22 18 -28 4 -29 23 -3 47 16 14 35 17 100 16 79 -2 108 12 55 25 -14
3 -25 13 -25 21 0 21 106 7 142 -19 29 -20 85 -19 80 1 -1 7 2 10 8 6 5 -3 17
-2 26 3 15 8 14 12 -10 33 -22 19 -39 24 -86 24 -33 0 -61 -4 -63 -9 -2 -5
-11 -6 -21 -3 -17 7 -17 9 -3 25 18 19 89 21 111 3 11 -9 15 -9 18 1 3 8 18 2
45 -20 22 -17 43 -29 46 -26 9 10 -51 100 -89 134 -49 43 -104 78 -135 85 -21
5 -34 0 -62 -24 -46 -41 -56 -39 -23 3 14 19 22 37 17 41 -5 3 -13 1 -16 -5
-4 -6 -15 -8 -26 -5 -10 4 -19 2 -19 -4 0 -5 -22 -9 -51 -7 -27 1 -58 -3 -67
-10 -9 -6 -37 -14 -62 -18 -25 -4 -58 -13 -74 -21 -44 -23 -44 -9 1 38 22 23
53 57 68 75 16 17 35 32 44 32 29 0 -3 18 -44 24 -34 6 -45 3 -69 -19 -35 -30
-40 -31 -27 -7 9 16 5 18 -41 19 -55 2 -64 7 -70 38 -2 16 10 24 72 46 41 15
91 27 110 28 26 0 10 -8 -62 -31 -54 -17 -98 -35 -98 -39 0 -13 85 -19 120 -9
19 5 68 10 107 10 42 0 73 4 73 10 0 17 28 11 83 -17 29 -15 79 -34 112 -44
33 -10 50 -18 37 -18 -33 -1 -114 20 -137 36 -23 15 -69 18 -60 3 3 -5 15 -10
26 -10 10 0 24 -9 31 -20 7 -11 19 -20 26 -20 7 0 36 -17 65 -39 29 -21 62
-42 74 -45 12 -4 53 -37 92 -74 39 -37 71 -65 71 -62 0 12 -37 59 -65 83 -27
23 -27 25 -7 20 12 -3 22 -1 22 3 -1 14 -39 90 -40 79 0 -13 -45 56 -45 70 0
5 -4 10 -10 10 -5 0 -21 8 -35 18 -110 78 -186 121 -199 113 -5 -3 -21 4 -36
15 -23 19 -35 21 -94 15 -38 -3 -93 -17 -125 -31 -53 -24 -56 -24 -46 -5 11
21 62 52 94 57 28 5 33 13 8 13 -11 0 -24 5 -27 10 -3 6 3 10 14 10 11 0 23 5
27 12 5 8 -2 9 -25 5 -20 -4 -30 -3 -26 3 3 6 17 10 31 10 24 0 34 23 14 35
-5 3 -10 10 -10 14 0 12 151 -8 183 -24 17 -8 33 -13 36 -9 9 9 -42 44 -64 44
-12 0 -25 4 -30 9 -19 17 -115 42 -135 36 -17 -5 -19 -9 -9 -21 11 -13 9 -14
-12 -9 -14 3 -37 2 -51 -4 -32 -12 -44 -3 -20 15 16 12 16 13 -4 14 -22 0
-106 -40 -144 -69 -20 -16 -22 -21 -11 -35 7 -9 9 -16 3 -16 -5 0 -12 7 -15
14 -5 13 -11 13 -39 -1 -18 -9 -37 -22 -41 -30 -10 -16 -27 -17 -27 -2 0 5 5
7 10 4 6 -3 10 1 10 9 0 9 20 36 45 61 25 26 48 57 51 70 3 13 15 27 25 30 10
4 19 11 19 16 0 9 -58 -18 -70 -32 -21 -25 -153 -70 -171 -58 -11 7 -9 9 7 9
11 0 24 4 30 9 5 5 26 14 46 20 20 7 56 27 80 45 37 28 47 32 72 23 18 -6 31
-6 35 0 3 6 13 13 21 16 11 4 10 7 -7 12 -13 4 -20 11 -17 16 3 5 -2 9 -10 9
-9 0 -16 -7 -16 -15 0 -8 -4 -15 -10 -15 -5 0 -10 9 -10 21 0 11 -5 17 -10 14
-6 -4 -29 7 -51 23 -24 18 -48 28 -59 25 -11 -3 -17 -9 -14 -14 8 -14 -18 -10
-46 6 -30 17 -44 19 -35 5 3 -6 -4 -10 -17 -10 -13 0 -38 -9 -57 -21 -45 -27
-81 -41 -81 -30 0 5 11 12 24 15 13 3 48 24 77 46 29 22 59 40 65 40 6 0 17 7
24 15 7 8 25 15 41 15 21 0 27 4 23 15 -4 8 -1 15 5 15 15 0 14 27 -1 36 -6 4
-8 3 -5 -3 8 -13 -32 -46 -48 -39 -10 3 -12 0 -8 -11 5 -14 1 -15 -28 -9 -18
3 -52 15 -74 25 -22 10 -53 22 -70 27 -38 12 -35 28 7 34 33 6 33 6 10 18 -19
11 -21 16 -11 28 14 17 -2 19 -20 2 -10 -11 -18 -6 -41 22 -15 19 -26 38 -23
43 7 11 -29 37 -44 32 -7 -2 -13 1 -13 8 0 7 -16 -5 -36 -25 -49 -52 -59 -47
-15 6 15 18 14 18 -14 -1 -16 -11 -38 -30 -48 -41 -11 -11 -24 -19 -30 -17 -7
2 -37 -25 -67 -58 -58 -66 -159 -159 -125 -117 37 47 108 125 178 198 39 39
65 72 58 72 -7 0 -9 5 -6 10 4 6 10 8 14 6 11 -7 10 27 -2 42 -13 17 5 15 29
-3 10 -8 30 -15 44 -15 33 0 15 14 -38 29 -23 6 -59 26 -80 43 -20 18 -31 26
-24 18 14 -16 16 -40 3 -40 -5 0 -12 15 -15 34 -4 18 -14 40 -24 49 -28 25
-212 109 -244 111 -17 1 -36 9 -42 17 -30 37 -76 69 -124 88 -56 22 -63 12
-10 -15 45 -23 26 -29 -34 -9 -51 16 -53 16 -99 -6 -27 -12 -48 -25 -47 -28 2
-10 -21 -61 -27 -61 -4 0 -3 10 0 23 6 18 5 20 -6 10 -26 -25 -32 -12 -8 15
69 75 101 141 36 72 -16 -16 -33 -30 -37 -30 -5 0 -29 -21 -54 -47 -36 -37
-48 -45 -55 -34 -5 7 -13 11 -19 7 -6 -3 -18 1 -26 10 -15 14 -18 14 -36 -8
-11 -12 -22 -30 -25 -39 -4 -11 -13 -15 -25 -12 -16 4 -20 0 -20 -18 0 -26
-12 -18 -17 11 -3 19 1 22 30 24 11 1 36 33 37 49 0 17 -18 5 -25 -15 -6 -20
-8 -20 -12 -5 -2 9 -9 17 -14 17 -6 0 -7 5 -4 10 3 6 2 10 -4 10 -6 0 -15 -9
-21 -20 -6 -11 -20 -20 -31 -20 -11 0 -18 -4 -14 -9 3 -5 1 -12 -5 -16 -6 -3
-10 4 -10 17 0 13 -9 29 -21 36 -14 9 -19 20 -16 33 3 10 1 19 -4 19 -5 0 -16
14 -24 30 -13 26 -18 28 -30 18 -48 -43 -49 -44 -41 -13 4 16 17 37 28 47 12
10 18 18 14 18 -13 0 -94 -59 -99 -72 -2 -7 -8 -9 -13 -5 -5 5 -1 14 9 21 18
14 24 42 6 31 -5 -4 -19 1 -31 11 -20 19 -19 19 22 29 24 6 85 10 136 10 91 0
93 1 91 23 -1 12 -4 22 -8 22 -4 0 -9 10 -12 23 -3 12 -9 33 -13 47 -7 22 -6
23 8 12 11 -9 7 10 -14 60 -46 111 -49 118 -44 83 3 -16 7 -37 11 -46 4 -10 0
-19 -8 -22 -10 -4 -13 1 -9 20 3 18 1 24 -7 19 -10 -6 -13 0 -10 20 2 17 -26
21 -38 6 -18 -24 -16 -6 2 22 15 22 11 61 -5 51 -4 -2 -5 7 -2 20 2 15 0 25
-7 25 -6 0 -11 11 -11 25 0 14 -4 25 -10 25 -5 0 -10 8 -10 18 0 10 -6 26 -14
37 -12 16 -14 13 -20 -31 -12 -90 -14 -114 -6 -109 4 3 8 -21 8 -54 0 -32 5
-68 11 -79 14 -27 15 -54 1 -32 -8 12 -10 12 -10 -5 0 -16 -2 -17 -10 -5 -6 9
-6 18 0 24 18 18 10 26 -17 20 -17 -3 -23 -2 -16 3 8 6 9 14 3 23 -7 11 -10
12 -10 2 0 -7 -5 -10 -11 -6 -6 3 -9 17 -7 29 4 17 1 22 -9 18 -8 -3 -13 -2
-12 3 4 17 -13 104 -22 110 -5 3 -9 17 -9 32 0 15 -11 72 -25 127 -14 55 -25
112 -25 127 0 16 -4 28 -10 28 -5 0 -7 6 -4 14 3 8 -1 30 -9 48 -8 18 -25 59
-37 91 -12 31 -26 57 -30 57 -4 0 -10 14 -12 30 -6 37 17 42 26 6 4 -17 13
-24 26 -23 11 1 20 2 20 3 0 1 -21 24 -46 51 -25 26 -64 69 -86 95 -25 28 -46
44 -55 41 -8 -3 -13 0 -11 7 2 6 -8 19 -21 28 -24 16 -24 16 -12 -8 11 -22 9
-21 -13 5 -14 17 -25 24 -26 17 0 -7 -13 2 -30 20 -16 18 -30 27 -30 21z
m-494 -993 c24 -11 44 -22 44 -25 0 -2 -10 -13 -22 -25 -12 -11 -18 -23 -15
-27 4 -3 7 -1 7 5 0 7 5 12 11 12 5 0 8 -4 5 -8 -2 -4 -2 -13 2 -19 5 -7 26
-2 67 16 64 29 135 46 135 31 0 -5 -7 -16 -17 -25 -12 -13 -13 -19 -4 -24 7
-5 -17 -9 -53 -9 -36 -1 -74 -5 -83 -10 -10 -5 -35 -12 -56 -15 -33 -5 -39 -3
-49 19 -7 15 -17 22 -27 19 -9 -2 -77 -22 -151 -44 -122 -36 -206 -66 -413
-145 -219 -84 -639 -311 -871 -472 -60 -41 -114 -73 -120 -71 -6 2 -12 12 -14
23 -2 12 0 15 5 7 10 -14 54 20 72 55 9 16 18 21 31 17 13 -4 37 7 75 35 54
40 77 66 33 38 -37 -24 -55 -27 -55 -12 0 8 4 14 7 14 4 0 24 15 44 33 20 19
49 40 64 48 15 8 29 16 32 19 25 26 294 166 455 237 209 92 497 198 519 189
13 -4 20 -1 -134 -57 -144 -52 -284 -111 -288 -121 -2 -5 -7 -6 -12 -3 -4 2
-18 -4 -30 -15 -13 -11 -28 -20 -34 -20 -12 0 -198 -91 -206 -101 -3 -3 -27
-16 -53 -29 -26 -13 -53 -30 -59 -37 -6 -8 69 26 168 75 323 161 583 264 831
328 97 24 112 31 107 46 -4 14 0 18 20 18 30 0 42 15 20 24 -30 11 -149 -13
-292 -60 -115 -38 -112 -38 -112 -24 0 6 9 10 20 10 11 0 28 4 38 9 53 27 98
42 197 64 61 14 111 25 113 26 2 1 23 -8 48 -19z m139 -272 c19 -40 39 -80 44
-88 6 -8 18 -37 27 -64 14 -39 19 -45 25 -30 12 32 2 -77 -11 -126 l-13 -45
-8 35 c-4 19 -5 39 -2 44 4 5 1 6 -4 3 -12 -8 -26 50 -16 66 3 5 1 7 -5 3 -12
-7 -37 58 -27 74 3 5 2 10 -4 10 -6 0 -8 6 -5 13 5 13 -15 98 -35 150 -21 54
1 25 34 -45z m2439 -679 c13 2 10 -9 -11 -33 l-23 -26 27 -13 c18 -10 22 -16
13 -22 -7 -4 -16 -2 -21 6 -7 11 -21 7 -73 -20 -35 -18 -69 -31 -74 -27 -5 3
-12 -1 -16 -9 -3 -8 -14 -15 -25 -15 -11 0 -22 -4 -26 -10 -3 -5 -12 -7 -19
-4 -17 6 9 53 61 112 26 29 33 33 33 18 0 -14 6 -17 25 -14 14 3 25 2 25 -2 0
-4 11 -5 25 -2 15 2 25 11 25 21 0 23 33 62 41 49 3 -5 9 -9 13 -9z m-768 -24
c38 -26 63 -53 64 -69 0 -5 -9 -1 -20 9 -24 22 -25 17 -5 -21 23 -44 18 -59
-20 -73 -41 -14 -46 -31 -10 -31 37 0 30 -17 -20 -49 -24 -15 -42 -31 -38 -35
3 -3 1 -6 -6 -6 -7 0 -22 -11 -32 -24 -20 -25 -101 -69 -131 -71 -23 -2 -23 1
5 28 12 12 29 38 38 57 21 46 108 170 119 170 5 0 11 13 15 29 3 15 15 38 26
50 11 11 16 22 12 22 -4 1 -12 2 -18 4 -5 1 -16 3 -22 3 -15 2 -18 32 -3 32 5
0 26 -11 46 -25z m-3113 -71 c-3 -8 6 -29 20 -47 13 -18 28 -47 32 -65 3 -18
25 -55 47 -83 42 -53 45 -78 5 -41 -27 26 -43 27 -64 7 -16 -17 -18 -11 34
-83 16 -23 16 -23 -10 -20 -14 2 -29 7 -33 11 -12 11 -26 8 -18 -4 4 -7 0 -9
-12 -6 -48 15 -74 18 -74 11 0 -4 17 -26 38 -48 20 -22 28 -34 17 -26 -11 8
-23 20 -27 25 -5 6 -11 5 -16 -3 -7 -10 -15 -6 -35 14 -15 15 -28 31 -28 35
-1 5 -2 13 -3 18 0 5 -4 13 -8 17 -15 14 -8 26 7 14 9 -7 14 -18 12 -24 -3 -7
4 -12 14 -12 21 0 25 11 9 21 -5 3 -10 19 -10 35 0 16 -4 32 -10 35 -5 3 -10
11 -10 17 0 18 27 -10 40 -42 7 -18 20 -30 31 -30 10 0 23 -8 28 -17 7 -12 10
-13 11 -5 0 8 -25 41 -56 75 -46 51 -54 66 -49 87 4 14 8 36 10 50 5 36 22 78
46 112 l21 29 23 -21 c13 -12 21 -28 18 -36z m4151 -346 c2 -7 6 -22 10 -33
15 -38 15 -44 4 -51 -7 -5 -5 -11 6 -20 10 -7 15 -17 11 -23 -3 -6 1 -11 10
-11 12 0 15 -8 12 -32 -2 -17 -9 -34 -16 -36 -10 -3 -10 0 -2 16 13 25 14 45
2 37 -5 -3 -13 5 -17 17 -13 44 -44 50 -64 13 -7 -14 -19 -25 -26 -25 -21 0
-24 -28 -3 -33 10 -3 19 -11 18 -19 0 -10 -2 -10 -6 0 -2 6 -11 12 -19 12 -8
0 -20 12 -26 28 -16 37 -16 36 -32 23 -8 -7 -20 -10 -26 -6 -5 3 -10 3 -10 -2
0 -4 -11 -8 -25 -8 -14 0 -25 6 -25 12 0 7 -11 12 -25 11 -14 -1 -25 -6 -25
-11 0 -5 6 -7 14 -4 8 3 17 -1 20 -9 7 -19 -3 -18 -37 5 -24 15 -26 19 -12 25
9 3 26 6 38 7 12 0 16 3 9 6 -8 3 0 12 20 23 158 83 211 110 215 106 3 -2 6
-10 7 -18z m-1974 -309 c75 -35 111 -46 205 -59 133 -18 144 -19 150 -9 4 5
11 9 18 9 6 0 3 -6 -8 -13 -13 -10 -15 -16 -6 -21 7 -5 15 -6 18 -2 6 6 33
-18 33 -29 0 -4 -9 -5 -20 -2 -11 3 -20 1 -20 -3 0 -11 -47 -5 -123 15 -74 19
-80 19 -74 -4 3 -14 -2 -21 -20 -26 -28 -7 -63 2 -63 16 0 5 -10 9 -22 9 -26
1 -61 24 -51 33 3 4 1 7 -5 7 -7 0 -12 4 -12 9 0 5 9 7 19 4 13 -3 18 -10 14
-21 -5 -10 -3 -13 6 -8 7 5 10 14 7 22 -7 18 5 18 30 -1 22 -16 34 -19 34 -7
0 5 -40 29 -90 53 -49 24 -90 48 -90 52 0 5 3 7 8 5 4 -1 32 -15 62 -29z
m2698 -931 c24 -6 48 -18 55 -28 7 -9 19 -19 27 -22 8 -2 -14 -15 -50 -27 -75
-25 -105 -45 -95 -61 6 -9 -1 -10 -24 -5 -20 4 -37 2 -46 -5 -22 -18 -188 -13
-192 6 -1 5 30 14 70 21 39 6 99 18 132 27 32 9 68 16 80 16 11 0 29 7 39 15
11 8 29 15 40 15 16 1 13 4 -11 15 -59 25 -235 -4 -390 -66 -13 -5 -23 -6 -23
-4 0 12 44 54 52 49 4 -3 8 -1 8 5 0 5 -6 11 -12 14 -7 3 3 12 22 21 l35 17
-32 -6 c-18 -3 -46 -8 -63 -11 -19 -4 -30 -2 -30 5 0 6 9 11 19 11 11 0 22 4
25 8 7 11 314 3 364 -10z"/>
<path d="M3498 7986 c-49 -26 -51 -28 -39 -36 7 -3 -1 -7 -17 -7 -36 0 -98
-43 -80 -55 8 -5 3 -6 -13 -3 -17 4 -30 1 -38 -9 -16 -19 -1 -21 18 -3 11 9
10 7 0 -10 -8 -13 -21 -23 -30 -23 -16 0 -89 -45 -99 -61 -3 -4 -12 -4 -20 1
-13 8 -13 10 1 10 9 0 22 7 29 15 15 18 9 19 -25 3 -18 -8 -24 -17 -19 -30 3
-12 0 -18 -10 -18 -9 0 -16 -4 -16 -9 0 -5 -9 -7 -20 -4 -11 3 -20 1 -20 -4 0
-9 -69 -39 -82 -35 -4 1 -5 -4 -2 -12 7 -18 -39 -47 -57 -36 -11 8 -11 10 1
14 42 13 44 14 22 15 -13 1 -32 -4 -43 -10 -20 -10 -20 -11 -2 -24 17 -14 17
-16 -9 -19 -7 -1 -12 -7 -10 -14 1 -8 -6 -11 -22 -8 -18 3 -23 0 -21 -12 3
-21 -14 -44 -26 -36 -5 3 -9 -2 -9 -10 0 -9 -5 -16 -12 -16 -6 0 -9 -3 -5 -6
3 -3 31 15 62 40 76 61 230 147 340 189 112 43 157 57 178 57 10 0 14 5 11 15
-4 8 -1 15 5 15 6 0 11 -4 11 -10 0 -5 9 -10 20 -10 11 0 20 4 20 10 0 5 -7 7
-15 4 -10 -4 -15 0 -15 11 0 9 4 14 9 11 5 -3 11 7 14 23 3 16 12 29 19 28 34
-1 48 4 48 18 0 8 5 15 11 15 8 0 8 4 -1 15 -6 8 -9 19 -5 25 9 14 -5 13 -37
-4z"/>
<path d="M1616 6616 c-30 -63 -14 -233 36 -386 21 -64 47 -109 35 -62 -3 12
-2 20 3 17 9 -5 20 103 20 195 0 64 -30 213 -50 251 -15 27 -25 24 -44 -15z"/>
<path d="M2830 5628 c0 -40 20 -97 44 -124 21 -25 24 -26 51 -13 66 33 59 85
-18 129 -62 36 -77 37 -77 8z"/>
<path d="M6426 5463 c-20 -26 -39 -59 -42 -73 -3 -14 -10 -36 -15 -50 -11 -30
-9 -91 3 -84 17 11 20 -27 3 -40 -10 -7 -16 -22 -13 -36 3 -23 7 -25 67 -25
54 0 65 -3 67 -19 1 -10 5 -21 9 -24 5 -6 95 14 104 23 9 10 -22 34 -84 65
-71 36 -95 57 -52 47 24 -7 25 -6 21 35 -5 47 -14 64 -14 25 0 -32 -16 -34
-66 -11 -37 18 -45 40 -16 46 10 2 18 13 18 28 2 31 26 90 36 90 4 0 8 -11 8
-25 0 -47 15 -25 17 25 1 28 -2 50 -6 50 -5 0 -25 -21 -45 -47z"/>
<path d="M6599 5098 c-35 -18 -77 -31 -110 -34 -30 -2 -59 -5 -66 -6 -27 -3
-20 -40 18 -87 21 -27 39 -52 39 -56 0 -8 71 -155 75 -155 18 0 135 43 142 53
6 6 13 41 17 77 3 36 11 101 16 144 5 44 8 82 6 84 -3 2 -22 5 -43 7 -27 2
-54 -5 -94 -27z"/>
<path d="M6750 5054 c-14 -35 -13 -44 7 -44 9 0 31 -5 49 -12 l33 -12 -5 -63
c-5 -55 -4 -63 11 -63 10 0 15 -6 12 -12 -2 -7 -1 -22 4 -33 l8 -20 2 20 c4
46 7 61 18 88 14 35 14 47 1 47 -5 0 -10 -6 -10 -14 0 -8 -4 -17 -9 -20 -5 -4
-7 4 -3 16 6 26 32 49 46 40 5 -3 6 2 3 12 -4 10 -7 22 -7 27 0 9 -124 69
-142 69 -5 0 -13 -12 -18 -26z"/>
<path d="M8271 5046 c-6 -7 -23 -54 -37 -102 -27 -94 -29 -183 -5 -207 11 -12
207 -16 304 -7 48 5 74 -17 58 -49 -7 -11 -18 -21 -26 -21 -7 0 -17 -4 -20
-10 -13 -22 18 -8 46 19 32 32 37 64 14 87 -8 9 -18 27 -22 42 -3 15 -15 41
-26 57 l-19 30 5 -30 c3 -16 8 -39 12 -50 3 -11 -3 -2 -14 19 -26 50 -46 71
-150 162 -86 76 -101 84 -120 60z"/>
<path d="M1358 4910 c30 -12 28 -21 -3 -16 -17 3 -34 -3 -53 -19 -24 -21 -27
-30 -27 -87 0 -56 -2 -63 -20 -63 -11 0 -25 -7 -32 -15 -15 -20 16 -50 51 -50
24 0 25 -2 14 -25 -6 -14 -14 -25 -18 -25 -12 0 -28 -46 -35 -103 -8 -60 -10
-62 -65 -48 -58 15 -160 22 -160 11 0 -6 9 -10 19 -10 11 0 22 -4 25 -9 4 -5
24 -12 46 -16 43 -7 47 -13 28 -34 -7 -8 -1 -6 13 3 57 36 105 -8 59 -54 -11
-11 -20 -24 -20 -29 0 -5 -6 -12 -12 -14 -7 -3 -8 -6 -3 -6 6 -1 9 -23 6 -52
l-3 -50 -33 4 c-18 3 -39 8 -46 13 -7 4 -62 8 -121 9 -103 1 -134 -6 -85 -20
19 -5 65 -24 76 -32 2 -1 -7 -17 -21 -35 -23 -32 -48 -99 -48 -132 0 -9 7 -16
16 -16 12 0 14 7 9 30 -5 24 -4 29 9 24 20 -8 31 -44 16 -54 -17 -11 47 -34
89 -32 45 2 24 -13 -33 -23 -31 -6 -37 -5 -31 5 6 10 4 12 -9 7 -10 -4 -27 -2
-38 4 -16 9 -19 8 -16 -2 7 -20 65 -33 151 -33 70 0 84 4 149 38 75 39 277
179 328 226 16 15 31 25 34 23 7 -8 -6 -43 -17 -43 -6 0 -7 -3 -4 -6 3 -4 -2
-18 -13 -32 -11 -13 -17 -28 -14 -33 11 -19 -34 -79 -129 -171 -76 -74 -98
-101 -90 -109 7 -7 9 -25 6 -41 -5 -24 -2 -30 15 -35 25 -6 56 -59 41 -69 -6
-3 -7 -19 -4 -35 6 -27 3 -31 -32 -46 -34 -14 -62 -17 -130 -12 -12 1 -24 7
-27 15 -7 18 -53 18 -97 1 -35 -14 -45 -14 -119 -3 -42 6 -44 6 -26 -9 11 -8
29 -15 39 -15 19 0 19 -1 4 -18 -27 -30 -20 -42 23 -42 34 0 42 4 50 25 8 21
15 25 37 20 21 -4 23 -3 9 3 -30 13 -3 24 29 12 14 -5 37 -10 51 -10 13 0 24
-4 24 -10 0 -5 -4 -10 -10 -10 -5 0 -10 -5 -10 -12 0 -6 9 -3 20 7 11 10 23
15 27 12 3 -4 1 -7 -5 -7 -7 0 -12 -5 -12 -11 0 -5 5 -7 10 -4 16 10 12 -5
-10 -32 -11 -14 -17 -29 -15 -34 6 -8 59 16 83 39 16 15 42 16 42 2 0 -13 32
-9 43 5 4 6 11 4 17 -5 5 -8 10 -12 10 -8 0 4 10 4 23 -1 41 -15 69 17 30 35
-13 6 -6 9 26 13 l44 6 24 70 c14 39 29 74 34 80 5 5 9 17 9 27 0 10 4 18 10
18 5 0 7 7 4 15 -6 14 -8 14 -18 0 -9 -13 -11 -9 -11 17 0 31 52 145 80 178 8
8 18 28 24 43 10 27 31 29 31 4 0 -7 16 -25 35 -40 28 -22 39 -26 54 -17 28
14 57 12 71 -6 11 -13 10 -16 -8 -21 -22 -5 -31 -23 -12 -23 11 0 1 -31 -14
-43 -7 -5 -4 -6 7 -3 12 4 17 2 14 -6 -2 -7 6 -22 18 -34 13 -11 28 -30 34
-42 6 -11 21 -22 33 -24 21 -3 23 -9 25 -63 1 -33 2 -66 2 -74 1 -11 4 -11 16
-1 12 10 15 10 15 -4 0 -17 42 -32 59 -21 6 3 11 2 11 -4 0 -5 -6 -12 -12 -14
-10 -4 -9 -8 2 -16 13 -9 12 -16 -6 -53 -30 -64 -27 -71 31 -72 35 -1 49 3 48
12 -2 6 2 12 7 12 19 0 77 -44 96 -72 28 -41 34 -34 11 13 -17 34 -18 44 -7
67 l12 27 13 -26 c8 -14 15 -43 17 -65 4 -50 37 -90 38 -46 1 10 7 3 15 -15 8
-18 19 -33 25 -33 7 0 9 6 6 13 -3 6 -9 20 -12 29 -3 10 -15 20 -25 23 -10 4
-19 12 -20 18 -2 34 -12 74 -35 144 -39 118 -43 133 -35 133 4 0 18 -22 31
-50 13 -27 25 -48 27 -46 2 1 -8 35 -21 75 -13 39 -21 71 -18 71 8 0 72 -74
72 -84 0 -14 102 -216 112 -222 6 -4 15 0 20 7 7 10 8 8 5 -8 -5 -22 6 -32 17
-15 4 6 -23 117 -38 157 -2 6 -3 13 -2 16 0 3 -10 21 -24 40 -14 19 -36 54
-49 79 -13 25 -32 54 -42 66 -11 11 -19 24 -19 28 0 5 -10 17 -22 27 -18 16
-19 23 -10 41 7 13 11 16 11 8 -2 -31 1 -41 13 -34 7 5 8 3 3 -6 -6 -10 -4
-12 8 -7 10 4 22 -1 30 -13 8 -11 17 -17 20 -13 4 3 7 -1 7 -10 0 -11 5 -14
15 -11 8 4 22 1 29 -5 24 -20 27 5 5 33 -11 14 -18 30 -14 36 3 5 0 7 -8 4
-18 -7 -43 21 -27 31 15 9 45 -19 60 -56 7 -16 16 -26 21 -23 5 3 9 -9 9 -25
0 -20 5 -31 14 -31 8 0 24 -16 37 -36 20 -33 23 -35 35 -19 11 15 17 11 58
-44 25 -34 51 -77 58 -96 6 -19 18 -35 25 -35 10 0 9 7 -5 28 -67 99 -82 123
-82 129 0 3 -21 31 -47 62 -27 30 -47 59 -45 63 1 4 -3 8 -9 8 -5 0 -17 16
-25 35 -8 19 -18 35 -23 35 -5 0 -26 16 -47 35 -20 19 -41 35 -46 35 -5 0 -21
11 -36 25 -24 22 -27 23 -33 7 -4 -9 -5 -20 -3 -24 9 -14 -18 -19 -33 -6 -13
10 -17 10 -20 1 -3 -7 -9 -13 -14 -13 -4 0 -6 6 -3 13 4 10 -3 12 -26 9 -44
-6 -100 25 -102 58 0 14 -2 31 -2 38 -1 14 -44 62 -55 62 -4 0 -15 14 -24 30
-10 17 -14 30 -8 30 5 0 11 -5 13 -11 5 -15 35 -1 35 16 0 10 -11 15 -34 15
-18 0 -41 8 -51 18 -10 9 -44 39 -75 65 -32 27 -57 55 -57 63 0 8 -5 12 -10 9
-11 -7 -40 18 -40 34 0 6 -6 11 -12 12 -32 2 -53 9 -56 18 -2 6 -15 11 -28 11
-20 0 -23 3 -16 16 11 19 4 54 -10 54 -5 0 3 12 17 27 30 33 31 43 5 43 -17 0
-18 3 -9 18 6 10 20 19 31 19 16 2 19 -3 15 -19 -4 -16 -3 -18 5 -10 18 18 23
129 8 157 -15 28 -58 50 -117 60 -29 4 -43 3 -43 -4 0 -15 -59 -76 -66 -68 -3
3 0 16 6 29 9 18 4 16 -19 -10 -28 -29 -36 -32 -32 -9 0 4 -4 7 -9 7 -5 0 -10
-4 -10 -10 0 -5 -4 -10 -10 -10 -8 0 -16 29 -7 30 1 0 27 10 57 20 45 17 49
20 20 16 -19 -2 -44 -8 -54 -12 -17 -6 -18 -4 -12 22 3 16 9 53 12 82 8 63
-11 92 -60 91 -29 0 -29 -1 -8 -9z"/>
<path d="M5125 4801 c-54 -13 -128 -51 -181 -92 -39 -30 -61 -58 -88 -111 -20
-39 -36 -80 -36 -90 0 -37 29 -88 62 -108 28 -18 45 -21 114 -17 143 6 250 76
310 203 38 78 40 99 20 148 -26 63 -106 90 -201 67z"/>
<path d="M6641 4750 c-70 -33 -80 -49 -70 -103 4 -25 2 -56 -5 -81 -9 -30 -10
-65 -4 -128 8 -72 6 -95 -8 -135 -26 -75 -34 -172 -17 -206 8 -15 25 -60 38
-99 13 -39 33 -80 44 -92 12 -12 21 -26 21 -32 0 -5 49 -59 108 -121 101 -103
112 -112 156 -118 26 -4 51 -4 56 1 18 20 37 198 28 267 -11 86 -49 198 -83
247 -19 28 -27 52 -27 86 -1 51 -34 141 -67 182 -11 14 -21 32 -21 38 0 7 -13
17 -30 23 -16 5 -30 13 -30 16 0 15 34 55 46 55 8 0 14 10 14 23 0 16 6 23 21
24 17 2 19 -1 10 -10 -15 -15 -14 -27 2 -27 8 0 14 6 14 13 0 6 4 24 7 38 5
18 2 30 -8 38 -14 12 -16 10 -16 -8 0 -12 -4 -19 -10 -16 -6 4 -7 13 -1 23 30
59 17 106 -32 116 -65 14 -81 12 -136 -14z"/>
<path d="M3018 4505 c-10 -13 -18 -29 -18 -34 0 -16 -9 -14 -37 9 -31 24 -40
25 -40 5 0 -10 6 -14 14 -11 9 4 6 -5 -7 -24 -23 -33 -43 -40 -33 -12 5 13 3
14 -7 5 -13 -12 -40 -7 -52 11 -4 6 -10 7 -14 3 -11 -10 8 -27 37 -32 13 -3
25 -9 27 -15 2 -5 13 -10 24 -10 12 0 22 -8 25 -20 l6 -21 14 21 c15 21 40 29
27 8 -5 -7 -2 -9 8 -5 17 6 87 -61 81 -78 -1 -6 11 -25 27 -43 16 -19 34 -49
40 -68 7 -20 14 -33 17 -30 7 6 -18 77 -34 97 -7 8 -13 20 -13 26 0 22 -32 72
-50 78 -11 4 -20 10 -20 14 0 5 -11 20 -24 34 l-25 27 20 22 c11 13 17 17 13
9 -7 -14 14 -33 28 -25 15 9 8 44 -8 44 -11 0 -14 6 -9 20 8 26 4 25 -17 -5z"/>
<path d="M2748 4474 c6 -3 12 -11 12 -18 0 -7 11 -19 25 -26 36 -20 22 -25
-16 -6 -38 19 -51 14 -17 -7 12 -8 43 -27 68 -43 25 -16 50 -27 57 -26 6 1 14
-2 18 -8 8 -13 -14 -42 -26 -34 -12 7 -11 -3 2 -28 9 -16 7 -24 -6 -37 -17
-15 -17 -15 -11 3 5 14 -4 9 -28 -14 -18 -18 -41 -35 -50 -36 -18 -2 -22 11
-6 21 6 3 10 1 10 -6 0 -7 3 -10 6 -6 3 3 2 13 -4 23 -6 11 -12 13 -16 6 -4
-8 -29 0 -71 23 -35 19 -73 35 -84 35 -11 0 -22 6 -24 13 -4 7 -6 6 -6 -4 -1
-14 45 -43 63 -40 11 1 85 -72 80 -80 -8 -14 59 -69 78 -63 19 6 95 -64 124
-113 10 -18 22 -33 27 -33 10 0 9 2 -18 49 -20 33 -112 151 -127 162 -5 3 3
16 17 29 14 13 25 20 25 16 0 -4 10 0 22 8 15 11 26 12 40 5 19 -10 27 4 8 16
-15 9 -12 19 14 50 36 42 54 23 101 -107 16 -47 33 -69 20 -27 -4 12 -8 28 -9
35 -1 7 -5 17 -9 20 -11 12 -8 44 4 44 8 0 8 4 -1 15 -6 8 -15 14 -18 13 -20
-2 -25 4 -12 13 13 9 12 10 -2 5 -13 -4 -18 0 -18 12 0 9 -5 24 -10 32 -9 13
-14 11 -35 -13 -14 -15 -25 -24 -25 -20 0 5 5 14 12 21 16 16 -4 16 -21 0 -11
-11 -13 -10 -8 5 5 12 3 16 -5 11 -8 -5 -9 -2 -5 9 4 11 1 17 -8 17 -8 0 -15
-7 -15 -15 0 -9 -6 -12 -16 -8 -11 4 -12 9 -5 16 18 18 13 26 -34 47 -25 11
-44 26 -42 32 1 7 -7 13 -18 15 -11 1 -14 0 -7 -3z"/>
<path d="M7062 4447 c-30 -9 -33 -14 -30 -39 3 -15 1 -28 -4 -28 -5 0 -16 -16
-24 -36 -13 -32 -13 -40 -1 -68 8 -17 17 -67 21 -111 3 -44 12 -97 19 -118 10
-26 11 -55 6 -95 -13 -91 15 -252 43 -252 4 0 8 -13 8 -30 0 -37 17 -40 22 -4
2 21 12 29 55 44 51 18 52 18 65 -1 9 -13 20 -17 36 -13 35 10 28 35 -10 32
l-32 -3 -1 60 c0 47 -7 74 -34 125 -37 73 -59 217 -41 265 6 15 10 61 11 103
0 43 4 69 8 59 6 -16 9 -16 18 -5 18 23 25 56 12 64 -8 5 -10 2 -6 -9 3 -9 0
-18 -9 -21 -10 -4 -14 2 -14 19 0 16 -6 25 -15 25 -9 0 -20 11 -25 25 -10 27
-25 29 -78 12z"/>
<path d="M6042 4379 c11 -33 11 -33 -81 -131 -35 -38 -44 -54 -43 -80 1 -29
-10 -46 -82 -121 -59 -62 -88 -86 -100 -81 -14 5 -13 9 7 24 l22 19 -22 -6
c-13 -3 -23 -1 -23 6 0 5 -6 8 -14 5 -17 -7 -51 40 -41 56 4 6 1 9 -5 8 -15
-4 -82 120 -73 135 3 7 -2 5 -13 -4 -10 -9 -100 -57 -199 -106 -99 -50 -200
-102 -225 -116 -51 -30 -60 -32 -60 -14 -1 6 -10 23 -21 36 l-20 25 -62 -34
c-34 -18 -85 -48 -112 -65 l-50 -32 -110 7 c-60 4 -114 6 -120 4 -5 -2 -19 11
-30 29 -11 18 -37 41 -59 51 -53 26 -143 27 -181 2 -27 -18 -27 -20 -10 -32
10 -7 23 -15 29 -17 7 -2 2 -22 -13 -55 -22 -46 -26 -50 -47 -41 -14 5 -34 5
-48 -1 -13 -5 -26 -6 -29 -3 -3 3 -3 -4 0 -16 4 -14 1 -21 -9 -21 -15 0 -38
19 -38 31 0 7 44 22 67 24 18 0 17 19 -1 23 -24 5 -209 -89 -265 -135 -10 -7
33 -42 59 -48 22 -5 27 -12 28 -35 1 -30 -12 -41 -21 -17 -6 15 -32 -16 -46
-55 -22 -63 54 -127 136 -114 31 4 32 4 26 -25 -4 -23 -2 -29 12 -29 9 0 19 9
22 20 4 15 11 18 29 14 17 -4 34 2 61 24 21 16 49 33 63 37 32 10 100 63 100
78 0 7 -7 4 -14 -5 -16 -22 -40 -24 -32 -3 5 14 -6 20 -28 16 -5 -1 -6 5 -3
13 7 18 -58 60 -76 50 -7 -4 -9 -4 -5 0 4 5 -2 25 -13 44 -10 20 -19 52 -19
71 0 32 1 33 18 18 14 -13 21 -14 30 -5 8 8 13 3 17 -18 26 -113 66 -164 130
-164 33 0 46 -6 72 -35 30 -33 31 -35 13 -45 -19 -10 -70 -10 -70 0 0 4 7 15
15 26 8 10 15 26 15 33 0 8 -14 -4 -31 -27 -20 -27 -28 -48 -24 -61 6 -21 -17
-36 -62 -40 -12 -1 -14 -4 -7 -9 12 -8 44 -66 44 -80 0 -5 -28 -15 -62 -21
-35 -6 -75 -14 -89 -17 -22 -4 -28 1 -44 36 -10 22 -22 40 -28 40 -5 0 -8 -28
-7 -62 4 -90 1 -138 -7 -136 -5 1 -20 -5 -35 -12 -29 -14 -37 -30 -15 -30 6
-1 1 -8 -13 -16 -15 -9 -18 -13 -6 -9 15 4 17 3 7 -9 -7 -8 -9 -25 -5 -41 5
-21 4 -27 -7 -23 -8 3 -14 10 -14 16 0 5 -3 14 -7 18 -5 4 -8 16 -8 26 0 16
-3 17 -20 8 -11 -6 -20 -8 -20 -4 0 4 -11 -5 -25 -20 -13 -14 -29 -26 -35 -26
-5 0 -10 -5 -10 -11 0 -6 -11 -20 -26 -31 -23 -19 -24 -22 -10 -37 19 -21 19
-37 1 -76 l-15 -30 6 32 c7 39 -12 79 -30 64 -7 -6 -17 -6 -26 -1 -22 13 -29
3 -20 -29 6 -22 5 -31 -5 -35 -11 -4 -11 -10 -2 -30 8 -16 16 -21 21 -15 17
16 29 10 23 -11 -3 -11 -3 -20 -1 -20 13 0 156 41 178 51 31 15 34 29 4 21
-14 -3 -19 -2 -14 6 9 15 49 15 63 1 7 -7 13 -7 17 0 4 5 13 8 20 5 8 -3 17 3
21 14 8 26 44 72 56 72 12 0 12 -87 -1 -95 -9 -5 -15 -45 -7 -45 15 0 107 53
107 61 0 6 7 9 15 5 23 -9 76 19 129 67 l48 45 -12 38 c-7 22 -23 61 -36 88
-29 60 -29 59 -6 47 10 -5 31 -43 47 -83 15 -40 31 -77 36 -82 5 -5 1 -15 -8
-21 -11 -8 -13 -14 -5 -19 7 -4 12 -2 12 3 0 6 7 11 16 11 8 0 13 -4 10 -9 -3
-4 3 -16 14 -26 19 -17 20 -17 21 3 2 39 4 41 27 58 31 21 37 13 37 -49 0 -47
2 -52 24 -55 19 -3 22 0 17 13 -3 10 -1 24 5 31 9 11 7 14 -7 14 -14 0 -16 3
-6 9 7 4 12 12 11 17 -6 32 3 37 22 14 l21 -25 -6 38 c-5 35 -3 38 24 44 16 3
32 5 35 4 3 -1 13 5 21 14 9 8 30 15 47 15 18 1 43 7 57 15 14 8 35 14 48 15
12 0 22 5 22 10 0 6 7 10 15 10 20 0 19 -17 -2 -29 -10 -6 -14 -11 -10 -11 4
0 19 8 34 17 21 14 25 14 21 3 -2 -8 1 -20 8 -27 14 -14 28 -18 21 -5 -3 4 2
13 10 21 12 11 14 10 11 -5 -2 -13 2 -18 12 -15 36 9 54 11 40 5 -8 -4 -52
-24 -98 -45 -80 -37 -162 -65 -227 -76 -16 -3 -36 -10 -42 -15 -9 -7 -18 -7
-27 1 -12 10 -12 6 -3 -26 15 -48 48 -92 73 -96 11 -1 24 -6 31 -10 6 -4 15
-2 20 5 12 21 12 38 0 38 -7 0 3 13 21 29 20 18 40 27 51 24 11 -3 30 3 44 11
13 9 29 16 33 14 5 -2 24 3 42 11 36 15 66 2 55 -25 -3 -9 2 -14 16 -14 13 0
21 -6 21 -16 0 -10 6 -14 15 -10 9 3 15 -1 15 -11 0 -12 3 -13 15 -3 12 10 16
8 24 -11 5 -13 7 -27 4 -31 -2 -5 3 -8 11 -8 10 0 13 6 10 15 -4 8 -2 15 4 15
16 0 20 -46 6 -65 -11 -15 -11 -20 4 -31 14 -11 15 -16 4 -33 -10 -18 -10 -21
4 -21 8 0 12 -4 9 -10 -3 -5 -1 -10 6 -10 25 0 -49 -53 -119 -86 -78 -36 -90
-50 -72 -83 l11 -21 39 20 c22 11 68 38 102 60 33 22 64 38 67 35 5 -5 -55
-65 -65 -65 -3 0 -12 -7 -20 -15 -23 -22 -1 -18 30 6 14 11 38 22 53 25 14 3
51 17 81 31 39 18 57 22 65 14 8 -8 7 -11 -4 -11 -8 0 -23 -6 -33 -13 -15 -11
-17 -18 -8 -33 11 -18 11 -18 12 0 0 16 2 16 19 -5 17 -21 21 -22 36 -9 15 13
19 12 31 -5 9 -12 11 -21 4 -23 -19 -7 -10 -20 10 -15 11 3 20 9 20 13 0 4 9
17 20 30 24 27 24 38 5 64 -17 22 -20 72 -6 81 5 3 12 -4 16 -15 7 -23 25 -27
25 -5 0 9 7 18 15 21 8 4 15 12 15 20 0 8 -7 14 -15 14 -20 0 -19 28 1 32 12
2 10 8 -12 28 -22 20 -26 21 -20 6 4 -13 2 -17 -8 -13 -10 4 -13 1 -9 -9 3 -7
0 -14 -6 -14 -6 0 -11 5 -11 10 0 6 -11 10 -25 10 -25 0 -25 -1 -10 -29 14
-27 12 -61 -4 -61 -16 1 -52 41 -45 51 3 6 1 15 -6 19 -9 6 -10 12 -1 26 6 11
11 13 11 7 0 -15 20 -18 20 -3 0 6 -9 19 -20 30 -12 12 -18 25 -15 30 4 6 1
10 -4 10 -13 0 -15 37 -2 44 5 3 12 -5 15 -18 9 -35 34 -41 42 -11 9 35 35 31
63 -11 21 -30 29 -35 53 -30 31 6 41 -17 12 -28 -12 -5 -14 -9 -5 -20 10 -11
18 -11 54 1 23 8 46 18 51 23 5 5 15 6 24 3 10 -4 13 -2 8 5 -5 8 0 12 13 12
21 0 28 14 13 24 -17 10 -97 -21 -100 -39 -3 -13 -8 -10 -23 14 -23 38 -24 51
-4 51 8 0 15 7 15 16 0 8 4 12 10 9 11 -7 70 25 70 37 0 4 5 8 11 8 6 0 22 9
36 19 13 11 30 18 37 15 9 -3 15 5 19 23 3 15 1 30 -4 31 -5 2 -7 8 -4 12 3 5
12 7 20 4 11 -5 12 -11 5 -24 -13 -24 -13 -30 0 -30 6 0 10 6 10 14 0 8 7 16
16 18 13 2 11 7 -8 25 l-24 23 -37 -26 c-20 -13 -37 -31 -37 -40 0 -8 -12 -19
-27 -25 -14 -5 -32 -17 -39 -27 -8 -9 -14 -13 -14 -8 0 5 -9 1 -20 -9 -11 -10
-20 -15 -20 -11 0 4 -6 1 -14 -6 -8 -7 -12 -16 -10 -20 2 -4 0 -9 -6 -13 -5
-3 -18 10 -27 30 -15 31 -15 37 -3 45 8 6 11 10 7 10 -4 0 -19 -7 -32 -16 -39
-26 -58 -14 -93 59 -2 4 6 7 17 7 12 0 21 5 21 11 0 7 -11 9 -27 6 -16 -2 -37
-1 -48 3 -20 8 -20 9 1 9 11 1 41 14 66 30 25 16 56 32 69 36 22 7 23 7 7 -17
-9 -13 -18 -35 -20 -48 -1 -14 -14 -30 -28 -37 -14 -7 -25 -17 -24 -23 3 -26
5 -30 19 -30 9 0 26 7 40 16 21 14 26 14 48 0 22 -15 26 -15 61 9 21 14 60 37
87 51 28 13 52 31 55 38 5 14 -24 77 -63 136 -13 19 -23 40 -23 46 0 6 21 28
47 48 56 43 40 49 -19 6 l-42 -31 -21 27 c-21 26 -22 27 -48 9 -32 -20 -31
-16 -12 -51 8 -16 14 -45 13 -64 l-1 -35 -4 34 c-3 19 -10 40 -17 45 -12 10
-42 65 -81 146 -7 14 -15 39 -19 55 -6 28 -5 28 19 -10 14 -22 25 -43 25 -46
0 -4 9 -9 20 -12 11 -3 20 -13 20 -22 0 -21 -5 -23 118 58 56 38 100 72 97 77
-3 5 -1 11 5 15 5 3 10 1 10 -5 0 -7 23 4 50 24 28 20 52 36 54 36 3 0 39 23
80 50 42 28 90 53 106 56 25 6 30 3 36 -20 3 -14 10 -26 15 -26 5 0 5 -8 2
-17 -7 -17 -6 -17 11 -1 22 22 52 9 66 -28 9 -22 18 -28 38 -21 4 1 6 5 4 10
-1 4 5 7 13 7 8 0 15 5 15 11 0 5 4 8 9 5 4 -3 16 3 26 14 10 11 24 20 31 20
7 0 14 6 17 13 2 6 7 9 11 6 9 -8 -14 -59 -26 -59 -5 0 -6 -5 -3 -10 3 -6 0
-13 -9 -16 -8 -3 -17 -12 -20 -21 -4 -11 -2 -13 9 -9 8 3 15 1 15 -4 0 -6 -5
-10 -11 -10 -5 0 -7 -5 -4 -10 4 -6 10 -8 15 -5 5 3 11 1 15 -5 3 -5 0 -10 -7
-10 -9 0 -14 -14 -15 -41 -2 -49 1 -48 20 8 10 30 11 45 3 53 -7 7 -3 17 17
34 31 26 34 36 12 36 -8 0 -15 -7 -15 -15 0 -8 -4 -15 -9 -15 -5 0 -7 9 -4 20
3 11 11 20 18 20 6 0 20 9 30 20 17 19 17 21 0 40 -10 11 -15 20 -10 20 4 0 1
8 -6 18 -11 14 -11 15 1 5 25 -23 41 -16 34 13 -5 21 -4 25 6 19 9 -6 11 -24
6 -67 -5 -51 -4 -59 9 -54 16 6 32 -35 20 -53 -3 -6 -2 -11 3 -11 12 0 22 37
15 56 -2 7 -13 16 -24 19 -10 4 -19 11 -19 16 0 12 17 12 25 -1 17 -27 25 -2
25 73 -1 52 -6 91 -15 107 -17 30 -19 44 -5 35 6 -3 10 -1 10 4 0 6 -4 11 -10
11 -5 0 -9 21 -9 48 0 49 -23 128 -38 126 -9 -1 -21 -57 -24 -114 -1 -19 -6
-66 -11 -103 -7 -51 -7 -72 3 -83 6 -8 9 -17 5 -21 -3 -3 -6 -1 -6 5 0 7 -5
12 -11 12 -5 0 -7 -5 -3 -12 5 -7 3 -8 -5 -3 -7 4 -10 17 -7 29 5 19 -21 115
-35 126 -3 3 -12 23 -19 45 -7 22 -19 51 -27 64 -8 12 -13 32 -10 42 3 10 1
17 -3 14 -5 -3 -16 -2 -25 1 -14 6 -13 10 8 33 65 72 79 129 47 198 -37 83
-88 87 -158 12 -26 -28 -32 -30 -52 -19 -18 9 -24 9 -30 0 -6 -9 -10 -6 -15 9
-6 21 -73 71 -94 71 -6 0 -6 -12 1 -31z m-1499 -437 c25 -27 30 -41 28 -76 -1
-12 -6 -16 -16 -12 -8 3 -22 9 -30 12 -9 4 -15 1 -15 -9 0 -8 -7 -17 -15 -20
-18 -8 -68 -105 -59 -118 10 -16 -16 -39 -45 -39 -14 0 -21 4 -15 8 16 11 25
54 13 68 -5 7 -19 9 -31 6 -19 -5 -20 -4 -7 10 7 9 17 14 22 11 4 -2 7 1 7 7
0 6 -7 10 -16 8 -20 -4 -27 12 -15 31 8 12 12 12 25 2 9 -8 16 -19 16 -26 0
-7 7 -18 15 -25 24 -20 17 4 -13 46 -41 57 -45 64 -30 59 8 -3 19 9 28 28 17
37 68 66 104 60 13 -3 35 -17 49 -31z m1153 -68 c-4 -11 -2 -15 7 -11 17 6 42
-8 34 -19 -3 -5 -43 -35 -89 -66 -79 -53 -85 -56 -128 -49 l-45 7 33 17 c17
10 32 20 32 23 0 7 -58 -24 -65 -36 -3 -5 -27 -10 -53 -9 l-47 0 45 22 c25 12
47 25 50 28 3 4 32 23 65 42 33 20 69 42 80 51 11 8 35 16 54 16 26 0 32 -3
27 -16z"/>
<path d="M3896 4329 c3 -5 7 -18 9 -29 3 -16 -2 -20 -24 -20 -16 0 -45 -11
-65 -25 -20 -14 -46 -25 -56 -25 -11 0 -20 -7 -20 -15 0 -8 -4 -15 -8 -15 -19
0 -45 -78 -38 -114 6 -31 12 -37 49 -47 73 -21 140 -15 184 17 21 15 43 33 48
38 19 20 49 41 42 29 -4 -6 -3 -14 2 -18 14 -8 32 30 25 49 -3 9 -10 16 -14
16 -5 0 -15 12 -23 28 -55 106 -72 131 -94 135 -12 2 -20 0 -17 -4z"/>
<path d="M2095 4134 c28 -7 36 -11 18 -9 -21 3 -33 -1 -37 -10 -3 -8 -1 -15 5
-15 6 0 7 -5 4 -10 -4 -6 -3 -9 2 -8 4 1 19 -5 33 -13 14 -9 58 -35 98 -59 40
-23 75 -47 78 -51 3 -5 20 -16 37 -24 53 -24 92 -52 168 -119 28 -25 72 -41
66 -23 -2 6 -12 15 -22 21 -10 6 -39 30 -63 54 -24 23 -48 42 -52 42 -5 0 -12
10 -16 22 -3 12 -14 30 -24 40 -10 11 -16 29 -13 41 4 20 3 21 -10 5 -11 -14
-17 -15 -30 -5 -14 10 -14 14 -2 31 11 14 18 16 27 8 9 -7 17 -6 26 4 7 8 8
14 2 14 -18 0 -11 20 8 21 21 1 -115 27 -143 28 -18 0 -18 -1 3 -11 38 -19 24
-25 -32 -14 -57 12 -83 25 -50 27 36 1 -50 27 -91 27 l-40 0 50 -14z"/>
<path d="M7662 3970 c-7 -11 -19 -20 -28 -20 -9 0 -27 -12 -40 -27 -13 -16
-24 -24 -24 -20 0 4 -6 3 -12 -3 -7 -6 -21 -16 -30 -23 -26 -18 -14 -114 14
-123 11 -3 25 -1 31 5 6 6 17 11 25 11 21 0 102 40 102 50 0 17 -33 11 -79
-15 -55 -32 -69 -31 -77 1 -9 37 11 73 51 90 19 8 35 21 35 30 0 9 6 14 13 12
6 -3 12 -18 12 -34 0 -22 8 -35 34 -52 18 -13 39 -21 46 -18 8 3 16 -2 19 -10
3 -8 1 -14 -3 -14 -5 0 -12 -7 -15 -16 -5 -12 -2 -15 11 -9 30 12 74 15 68 5
-3 -6 1 -7 9 -4 9 3 16 11 16 16 0 6 10 4 23 -4 29 -19 53 -13 32 9 -8 8 -15
20 -15 26 0 7 4 6 10 -3 5 -8 10 -10 10 -5 0 6 5 3 10 -5 7 -12 14 -12 27 -4
22 13 43 7 43 -12 0 -15 12 -19 23 -7 4 3 2 12 -4 19 -7 8 -7 14 0 19 7 4 6
14 -4 29 -14 21 -12 36 6 36 5 0 6 -8 2 -17 -5 -14 -3 -15 7 -6 7 6 19 9 27 6
11 -4 11 -8 3 -13 -7 -4 11 -6 40 -5 28 2 54 5 56 8 9 9 -24 25 -96 47 -41 12
-87 26 -102 31 -16 4 -28 4 -28 0 0 -4 18 -13 40 -20 22 -7 38 -16 35 -21 -12
-19 -136 -10 -200 15 -18 8 -18 6 3 -17 l23 -25 -41 -17 c-34 -13 -43 -14 -54
-3 -16 15 -26 76 -15 83 8 5 -11 44 -21 44 -3 0 -11 -9 -18 -20z"/>
<path d="M8194 3948 c-4 -7 8 -24 30 -42 86 -70 117 -106 115 -128 -2 -13 1
-29 5 -37 7 -11 6 -12 -5 -5 -18 11 -89 14 -89 3 0 -5 -6 -6 -12 -4 -7 2 -37
6 -65 9 -29 3 -63 11 -75 19 -26 15 -36 16 -60 2 -12 -7 -14 -15 -8 -25 9 -13
10 -13 10 0 1 9 5 6 10 -7 5 -13 17 -23 27 -23 12 0 19 -8 19 -23 1 -12 4 -29
5 -37 2 -8 -6 -19 -17 -24 -21 -9 -20 -12 25 -54 l46 -44 -34 7 c-24 5 -31 4
-27 -4 4 -6 11 -9 15 -7 8 6 38 -11 31 -17 -3 -3 -52 -10 -110 -16 -58 -6
-111 -12 -117 -13 -9 -1 -10 -5 -2 -15 9 -9 8 -13 0 -13 -9 0 -9 -5 -1 -20 15
-27 33 -26 25 3 -6 22 -6 22 10 2 8 -11 13 -26 10 -33 -3 -8 -5 -25 -5 -38 0
-16 -6 -24 -17 -24 -17 -1 -17 -1 -1 -11 9 -5 15 -16 12 -23 -7 -17 22 -29 44
-18 9 5 31 8 47 7 31 -2 55 10 55 27 0 5 -6 6 -12 3 -7 -4 -5 0 5 8 17 15 24
33 8 23 -16 -10 -41 6 -41 26 0 14 5 18 15 14 12 -4 14 0 9 19 -11 45 6 26 33
-36 26 -60 27 -61 60 -54 40 7 44 -9 6 -24 -22 -9 -8 -10 68 -6 54 2 103 6
110 7 7 2 15 -5 17 -14 3 -15 -4 -18 -35 -18 l-38 0 29 -23 c20 -16 27 -29 23
-40 -4 -12 -1 -17 11 -18 9 -1 -3 -7 -28 -13 -51 -14 -58 -13 -40 9 17 21 5
31 -23 17 -12 -6 -29 -13 -37 -15 -11 -4 -9 -6 4 -6 11 -1 32 -12 46 -26 21
-20 38 -26 76 -27 l49 -1 -35 -12 c-30 -10 -32 -13 -15 -18 11 -4 31 -5 44 -2
19 3 22 1 18 -15 -3 -11 -2 -18 3 -15 4 2 13 24 19 48 11 38 10 51 -9 107 -28
82 -60 146 -104 203 -34 45 -66 128 -66 173 0 33 -62 78 -97 71 -26 -5 -53 11
-53 32 0 6 13 11 29 11 16 0 37 3 47 7 10 4 15 2 11 -3 -9 -15 139 -10 157 5
24 20 46 76 46 117 0 40 -12 38 -25 -5 -5 -15 -3 -21 3 -17 6 4 8 -2 5 -14 -6
-23 -7 -23 -37 18 -78 108 -109 142 -126 142 -10 0 -22 -5 -26 -12z"/>
<path d="M6640 3613 c0 -17 -4 -21 -17 -16 -10 3 -15 3 -11 -2 8 -8 -15 -35
-30 -35 -5 0 -13 10 -16 23 -7 22 -7 22 -15 1 -5 -11 -11 -42 -14 -70 -3 -27
-10 -64 -16 -82 -8 -27 -7 -39 6 -58 8 -13 11 -24 5 -24 -6 0 -13 8 -15 18 -3
11 -5 7 -6 -10 0 -14 -4 -35 -8 -45 -6 -16 -5 -16 10 -4 15 12 17 12 11 -3 -3
-9 -11 -16 -16 -16 -6 0 -8 -11 -6 -25 4 -17 1 -25 -8 -25 -8 0 -14 -4 -14
-10 0 -5 7 -7 15 -4 20 8 19 -6 -2 -23 -17 -14 -17 -14 0 -9 12 4 16 2 11 -6
-11 -17 -15 -70 -5 -64 15 10 11 -67 -5 -91 -8 -13 -12 -23 -9 -23 10 0 60 63
58 72 -2 4 1 8 7 8 6 0 10 -4 10 -10 0 -21 21 -9 30 18 18 47 33 72 41 66 5
-3 6 2 3 10 -4 11 0 16 12 16 16 0 17 2 4 10 -11 7 -11 10 -2 10 21 0 32 43
16 61 -8 8 -14 19 -14 23 0 3 -15 20 -34 36 -44 39 -50 65 -23 90 11 11 24 20
28 20 10 0 19 -28 19 -59 0 -52 70 -83 131 -57 l30 13 -40 18 c-47 21 -76 49
-66 64 4 8 13 8 28 0 12 -6 5 3 -15 21 -36 30 -50 60 -28 60 6 0 10 -4 10 -10
0 -14 13 -12 36 6 10 8 13 12 5 8 -11 -5 -13 -3 -8 10 5 14 3 17 -8 12 -10 -3
-17 3 -22 22 -3 14 -10 31 -15 37 -5 5 -15 19 -23 30 -14 20 -14 20 -15 -2z"/>
<path d="M6345 3500 c-4 -6 -3 -25 1 -43 4 -17 8 -42 10 -54 1 -12 5 -26 8
-31 9 -14 -17 -62 -34 -62 -8 0 -31 5 -50 10 -33 10 -37 8 -62 -22 -33 -39
-36 -53 -7 -37 28 15 68 19 75 7 3 -5 14 -6 25 -3 10 4 19 2 19 -3 0 -5 11 -9
25 -9 14 0 25 5 25 13 0 7 6 11 14 8 7 -3 20 2 29 10 14 15 17 14 32 0 9 -9
18 -14 21 -12 2 3 -2 11 -11 18 -8 7 -15 17 -15 22 0 6 6 6 14 -1 17 -14 22
-1 30 64 2 22 8 53 12 69 5 22 4 28 -7 24 -8 -3 -14 -11 -14 -19 0 -8 -9 -14
-20 -14 -13 0 -21 -8 -23 -24 -2 -15 0 -21 7 -16 6 3 9 11 6 16 -4 5 -2 9 3 9
9 0 22 -23 22 -38 0 -4 -14 -7 -30 -8 -25 -1 -29 2 -25 17 4 13 -2 22 -23 33
-32 16 -45 38 -36 60 6 17 -12 31 -21 16z"/>
<path d="M6797 3489 c-5 -17 -11 -20 -31 -15 -33 8 -39 -13 -13 -41 13 -15 16
-23 8 -23 -20 0 7 -30 37 -41 13 -5 20 -14 16 -20 -3 -6 -1 -14 5 -18 13 -8 4
-41 -11 -41 -5 0 -6 5 -3 10 9 14 -7 12 -43 -6 -51 -25 -37 -67 23 -68 11 -1
19 -7 17 -14 -2 -9 4 -12 15 -8 21 6 107 -17 98 -26 -4 -3 -8 -18 -9 -32 -4
-30 13 -35 21 -6 3 11 12 20 19 20 8 0 14 5 14 10 0 17 48 11 87 -10 21 -11
43 -20 50 -20 7 0 13 -11 13 -25 0 -15 6 -25 14 -25 7 0 21 -11 30 -25 9 -14
20 -24 24 -23 10 3 92 -51 92 -61 0 -11 -83 -51 -105 -51 -8 0 -15 4 -15 10 0
13 -149 84 -158 75 -4 -4 2 -12 12 -19 11 -6 30 -21 43 -33 13 -12 23 -19 23
-16 0 3 7 0 15 -7 8 -7 15 -21 15 -31 0 -12 7 -19 19 -19 11 0 21 -3 23 -8 6
-13 108 -84 108 -75 0 6 -22 24 -50 42 -27 18 -50 35 -50 39 0 4 24 20 53 35
84 45 85 46 92 124 5 55 4 73 -7 80 -8 4 -20 22 -27 40 -16 40 -42 64 -48 45
-3 -6 -10 -9 -16 -6 -7 3 4 -8 23 -25 19 -17 29 -31 21 -31 -18 0 16 -40 35
-40 7 0 10 -8 7 -19 -5 -19 -5 -19 -37 0 -18 10 -42 37 -54 58 -21 37 -130
131 -152 131 -6 0 -10 -9 -10 -20 0 -25 -12 -26 -33 -2 -22 24 -21 35 2 27 25
-8 37 23 15 40 -10 7 -15 19 -11 29 7 18 25 20 47 6 13 -8 13 -11 1 -19 -11
-7 -9 -10 8 -16 13 -4 29 -1 39 7 15 12 16 11 3 -4 -11 -15 -10 -19 13 -30 16
-6 25 -17 22 -25 -3 -7 1 -13 9 -13 8 0 15 -4 15 -10 0 -5 8 -10 18 -10 14 0
15 -2 2 -10 -9 -6 -10 -10 -3 -10 20 0 24 17 8 33 -8 9 -15 18 -15 21 0 3 -14
25 -30 50 -25 36 -38 46 -68 51 -59 10 -71 17 -42 24 16 5 21 9 13 14 -7 4
-10 14 -6 22 3 8 0 15 -6 15 -6 0 -11 6 -11 14 0 11 -8 12 -40 4 -27 -7 -40
-16 -40 -28 0 -9 -12 -22 -26 -29 -22 -9 -31 -9 -50 4 -23 15 -24 34 -1 63 7
9 3 12 -15 12 -13 0 -29 5 -35 11 -7 7 -12 4 -16 -12z"/>
<path d="M4530 3010 c-1 -42 -50 -86 -157 -140 -114 -58 -155 -93 -134 -113
11 -9 14 -9 18 1 6 14 46 34 78 38 23 2 94 28 143 50 19 9 43 14 53 11 15 -4
19 -1 15 11 -2 9 -8 32 -11 51 -6 30 -5 33 10 27 15 -5 16 -2 10 31 -8 46 -25
67 -25 33z"/>
<path d="M7370 2974 c0 -9 -6 -14 -13 -11 -8 3 -12 -4 -11 -21 0 -14 6 -28 12
-30 22 -7 -14 -31 -38 -25 -22 6 -22 5 5 -25 16 -18 32 -32 37 -32 13 0 9 28
-4 33 -10 4 -10 8 2 16 23 16 32 2 26 -43 -3 -22 -3 -33 0 -23 3 9 9 17 14 17
5 0 7 -7 4 -15 -4 -8 -1 -22 6 -30 9 -11 9 -18 -2 -32 -20 -27 -42 -29 -28 -2
15 28 5 36 -18 15 -18 -15 -21 -15 -56 9 -42 28 -54 32 -36 10 15 -18 103 -70
113 -67 5 1 6 -1 3 -6 -6 -10 6 -24 82 -94 38 -37 51 -44 56 -32 7 17 -15 104
-26 104 -4 0 -5 7 -2 15 3 8 -3 31 -15 51 -12 19 -16 32 -9 28 8 -5 9 -2 5 10
-4 10 -7 23 -8 29 0 7 -4 3 -9 -8 -8 -19 -9 -19 -9 3 -1 26 -18 62 -35 75 -7
6 -4 7 7 3 13 -4 17 0 17 18 0 36 -11 61 -20 45 -6 -8 -11 -5 -19 10 -14 25
-31 28 -31 5z"/>
<path d="M4696 2935 c-3 -11 -2 -21 3 -23 4 -1 6 -13 4 -26 -4 -18 1 -25 19
-30 22 -6 22 -7 -8 -20 -18 -8 -35 -19 -38 -25 -4 -6 -12 -9 -17 -6 -5 4 -9
-1 -9 -9 0 -25 -17 -18 -24 9 -4 14 -11 25 -16 25 -5 0 -7 7 -4 15 4 10 0 15
-10 15 -13 0 -15 -4 -7 -18 5 -10 20 -47 32 -83 21 -62 78 -189 84 -189 13 0
-1 82 -16 99 -22 23 -25 47 -6 55 6 3 3 4 -8 3 -10 -1 -21 5 -22 13 -2 10 5
16 19 16 69 5 113 15 127 29 14 14 14 18 -1 43 -10 15 -24 26 -33 24 -12 -2
-14 4 -9 33 7 45 -1 58 -27 44 -12 -6 -24 -8 -27 -4 -3 3 4 8 16 12 27 7 29
22 3 20 -11 -1 -22 -10 -25 -22z"/>
<path d="M4048 2913 c-21 -8 -36 -18 -33 -23 2 -4 -6 -5 -18 -3 -19 4 -23 0
-25 -24 -1 -15 5 -43 14 -61 13 -28 14 -36 3 -42 -10 -7 -10 -12 -1 -23 7 -7
8 -17 4 -21 -4 -4 0 -13 9 -19 9 -7 21 -22 28 -34 7 -15 21 -23 37 -23 27 0
43 25 26 42 -8 8 -7 15 5 23 15 11 15 16 3 46 -8 18 -35 53 -60 78 -25 24 -37
41 -27 38 11 -4 21 0 29 13 7 11 21 20 31 20 11 0 15 4 11 12 -5 8 -2 9 10 5
10 -4 15 -3 11 3 -8 13 -12 12 -57 -7z"/>
<path d="M7456 2515 c-22 -20 -25 -28 -17 -44 6 -11 15 -21 20 -23 16 -6 -19
-89 -75 -173 -80 -121 -69 -120 22 3 1 2 10 5 19 6 9 1 21 9 27 17 8 12 9 12
6 -1 -3 -8 3 -23 11 -33 37 -46 61 -69 61 -60 0 5 -5 14 -10 19 -12 12 -2 47
11 38 5 -3 9 12 9 33 0 25 -3 33 -9 24 -6 -9 -11 -10 -15 -2 -4 6 -5 15 -2 20
3 4 -6 13 -20 20 -14 6 -22 16 -18 22 4 8 9 7 15 -2 7 -11 9 -10 9 4 0 9 -4
17 -10 17 -5 0 -10 5 -10 11 0 5 5 7 10 4 13 -8 13 1 -2 24 -9 15 -9 28 -1 55
14 45 3 53 -31 21z"/>
<path d="M5060 2451 c0 -5 6 -12 13 -14 6 -3 -1 -6 -17 -6 -16 -1 -59 -16 -95
-34 -36 -19 -82 -40 -101 -47 -19 -7 -44 -21 -55 -30 -34 -29 -52 -31 -48 -7
3 16 -4 27 -26 40 l-31 18 0 -31 c0 -40 35 -180 62 -248 14 -36 25 -51 36 -50
10 2 23 -11 33 -32 21 -43 16 -51 -10 -19 -20 23 -20 23 -21 3 0 -29 53 -100
90 -119 16 -8 30 -20 30 -25 0 -5 14 -32 31 -60 l31 -50 63 0 c97 0 117 7 184
70 l62 58 -15 36 c-8 20 -11 36 -7 36 18 0 51 104 51 159 0 72 -11 85 -58 65
-19 -8 -36 -13 -38 -12 -1 2 -17 39 -34 83 -42 106 -98 212 -116 219 -8 3 -14
1 -14 -3z"/>
<path d="M7531 2028 c-36 -141 -42 -158 -49 -158 -4 0 -7 -11 -7 -24 0 -21 3
-22 23 -15 34 13 42 11 35 -8 -6 -16 -5 -16 10 -4 10 8 17 9 17 3 0 -6 -4 -14
-10 -17 -5 -3 -10 -14 -10 -23 1 -21 24 20 34 58 3 14 3 19 0 13 -9 -21 -23
-15 -17 7 3 11 10 17 16 13 7 -4 8 13 4 53 -4 32 -10 86 -13 119 -3 33 -7 61
-9 63 -1 2 -12 -34 -24 -80z"/>
</g>
</svg>
